<svg xmlns="http://www.w3.org/2000/svg" fill="none" viewBox="0 0 393 191">
  <path fill="#000"
    d="M130.549 106.527c-.268-.235-1.891-1.961-3.605-3.837-1.715-1.875-3.287-3.547-3.495-3.715-.271-.218-1.72-.309-5.155-.322-4.877-.018-7.21-.206-6.688-.538.584-.371 4.887-1.142 6.397-1.145 1.479-.004 1.602-.05 2.504-.95 1.12-1.117 1.195-1.62.276-1.848-1.111-.277-1.527-.822-1.527-2.007 0-1.063.012-1.078 1.344-1.686 1.316-.6 1.344-.634 1.345-1.63.003-1.86.462-3.855 1.15-5 .375-.624.681-1.352.681-1.62 0-.35.189-.51.672-.565.369-.042.672-.214.672-.383 0-.353-1.824-5.612-6.302-18.174-6.254-17.545-7.197-20.036-7.624-20.148-.781-.203-2.203-3.928-2.194-5.745.005-1.045.915-2.588 1.925-3.267 1.11-.746 2.281-1.04 4.178-1.052l1.588-.01 11.986-11.867 11.987-11.866-.097-1.748c-.21-3.825 2.032-5.827 5.425-4.844 1.362.395 3.399 1.977 4.009 3.113.28.521.495.599 1.705.614.762.01 2.21.25 3.218.535 3.104.876 3.196.877 4.507.048 2.469-1.561 5.544-2.183 8.133-1.645 2.251.468 3.912 1.333 5.391 2.807 1.904 1.9 3.115 4.923 2.09 5.22-.251.074-2.929.695-5.952 1.38a585.967 585.967 0 0 0-9.477 2.238c-2.189.545-4.04.93-4.114.857-.276-.276-.578-2.157-.437-2.72.132-.525.038-.617-.887-.865-.687-.185-1.086-.196-1.187-.032-.083.134-.634 1.952-1.223 4.038-.704 2.493-1.184 3.792-1.401 3.792-.48 0-.43-.333.646-4.31.537-1.984.976-3.722.977-3.863.001-.141-.767-.503-1.707-.805-1.754-.564-2.2-.979-2.2-2.048 0-.514-.156-.613-1.289-.818l-1.289-.233-1.459 1.409c-.803.774-1.569 1.407-1.704 1.405-.134-.001-6.154 5.941-13.376 13.206-12.761 12.835-13.129 13.231-12.987 13.986.136.723-.191 1.747-.657 2.053-.108.071.407 1.706 1.145 3.633.738 1.926 2.716 7.24 4.395 11.806 3.763 10.236 3.525 9.643 3.874 9.643.16 0 .489.145.732.323.377.274.396.396.13.822-.282.448-.119.78 1.598 3.27 2.095 3.04 3.974 5.522 5.067 6.696.653.703.676.789.306 1.158-.22.219-.488.398-.597.398-.108 0-.584.161-1.057.358l-.861.359.581 1.407c.319.775.583 1.647.586 1.938.007.602-1.052 1.54-1.737 1.54-.311 0-.455.175-.452.549.006 1.125.278 1.615.937 1.691.496.057.711.273.922.927.224.697.41.866 1.017.928.546.055.778-.043.877-.366.073-.242 1.118-4.167 2.322-8.722s2.811-10.62 3.573-13.476l1.384-5.195-.652-3.575c-.358-1.966-1.467-7.73-2.464-12.81-.997-5.079-1.812-9.543-1.812-9.92 0-.448.19-.803.549-1.024.303-.187 4.068-2.12 8.367-4.295l7.818-3.956 1.466.146c1.745.175 2.186.587 2.433 2.273.094.64 1.146 6.81 2.338 13.71 2.472 14.315 5.96 34.825 7.28 42.81l.896 5.418 5.986-.015c5.506-.015 5.907-.044 5.008-.367-.538-.192-1.168-.578-1.402-.858-1.149-1.377-2.382-8.382-2.384-13.55-.001-3.124.017-3.233.58-3.6.906-.593 1.934-.813 5.154-1.103 2.457-.222 3.501-.202 5.889.108 3.475.451 4.096.79 4.208 2.301.07.942.111.993.583.741.668-.356 1.981-.129 2.859.495 1.863 1.322 1.949 5.287.166 7.69-.298.403-.605.841-.683.975-.174.302 3.112.498 7.627.454 3.789-.037 6.659-.55 10.871-1.944 2.732-.904 4.537-1.124 6.249-.76l.875.186.56-2.622c.309-1.442.706-3.102.883-3.689.313-1.039.302-1.091-.425-1.993l-.746-.926.758-2.513c.859-2.851 1.565-5.798 2.819-11.78.946-4.507 1.639-6.55 2.778-8.19.936-1.346 3.322-3.745 4.51-4.533.504-.334.916-.677.916-.763 0-.085-.632-.836-1.404-1.668l-1.405-1.514-2.008.711c-2.807.994-4 1.137-5.309.639-1.143-.436-1.659-1.184-1.97-2.86-.099-.534-.452-1.15-.875-1.525-.39-.347-.709-.832-.709-1.078 0-.246-.218-.644-.485-.885-.32-.289-.439-.62-.349-.977.175-.696-.406-1.276-1.479-1.477-1.719-.321-1.876-1.02-.965-4.297l.453-1.633-.553-.587c-.304-.323-.523-.685-.486-.803.086-.278-.822-1.8-1.075-1.8-.105 0-.192-.42-.192-.935 0-.747-.116-.988-.578-1.198-.318-.145-.896-.761-1.283-1.37-.821-1.292-1.124-1.431-.821-.378.258.899-.107.875-.802-.053-.685-.915-.788-2.351-.243-3.392l.456-.871-1.035-.897c-.569-.494-1.33-1.5-1.69-2.235-.554-1.127-.641-1.578-.558-2.876.066-1.038.273-1.81.635-2.375l.537-.836.004 1.465c.004 1.451.683 3.31 1.111 3.04.325-.203.102-2.959-.288-3.551-.2-.305-.329-.919-.286-1.364l.078-.808.628 1.032.629 1.033-.014-1.154c-.01-.881.157-1.415.704-2.251l.717-1.096.201 1.218c.255 1.541 1.046 2.314 2.37 2.314 1.09 0 2.139-.353 4.659-1.569l1.832-.883-1.344.142a36.05 36.05 0 0 0-2.076.278c-1.095.2-.511-.246 1.343-1.03 1.15-.485 2.06-.683 3.298-.718.941-.026 2.48-.279 3.42-.561.941-.282 2.095-.617 2.566-.744l.855-.23-1.222-.042-1.221-.042.733-.329c2.009-.903 5.536-.621 7.505.6.843.522 1.112.61.95.307-.335-.625-1.035-1.2-1.989-1.632L230.044 0l1.503.083c1.745.097 3.025.886 3.688 2.273.488 1.02.691 1.042.88.097.193-.96.647-.94.647.026 0 .628.073.726.428.575.985-.42 1.769-.38 2.904.149l1.188.553-1.466.17c-1.341.156-2.809.574-2.809.8 0 .05.55.039 1.223-.026.673-.064 1.732.025 2.354.199 1.172.327 2.774 1.665 2.774 2.317 0 .299-.169.276-.967-.13-.532-.27-1.274-.488-1.649-.482-.673.01-.671.014.174.377 1.854.8 3.711 3.289 4.055 5.44.088.546.1.994.027.994-.074 0-.375-.39-.67-.866-.735-1.185-.812-.946-.207.637.854 2.23.714 4.59-.492 8.34-1.209 3.756-1.34 6.097-.494 8.827.388 1.254.438 1.686.211 1.826-.324.2.536 1.881 1.97 3.855.623.858.869 1.027 1.329.912.792-.198 1.936.252 3.66 1.442 2.074 1.432 6.525 4.06 6.655 3.93.06-.06.211-.86.337-1.778.501-3.656 1.582-7.26 2.67-8.894.799-1.202 2.475-2.553 4.299-3.466 4.643-2.325 14.2-2.277 19.592.098 2.018.889 3.482 2.609 4.352 5.111.397 1.144.465 2.052.465 6.212 0 4.584-.255 7.195-.856 8.773l-.23.603-1.554-.852c-2.085-1.143-2.345-1.078-.5.124 1.981 1.29 3.137 2.608 4.141 4.718 1.961 4.118 1.647 9.294-1.183 19.518-.94 3.397-1.846 6.122-7.329 22.055-1.132 3.288-2.361 7.235-2.732 8.77a304.394 304.394 0 0 1-.79 3.217c-.109.404-2.549.426-46.889.426h-46.775l-1.152-.583c-2.035-1.031-15.311-8.443-15.552-8.684-.148-.148-.126-.34.06-.525.161-.161.293-.805.293-1.432 0-.627.137-1.25.305-1.385.181-.145 3.342-.303 7.757-.387 4.098-.078 7.475-.145 7.506-.15.03-.004-.052-.289-.184-.633-.131-.343-.238-1.003-.238-1.466v-.841l-8.611.16c-4.736.087-8.777.241-8.978.342-.897.446-2.881.52-3.627.136-.639-.33-1.996-.385-9.45-.385h-8.704l.16.725c.262 1.19-.041 1.67-1.297 2.056-1.057.324-.579.353 6.201.369l7.346.016 5.357 3.31c8.317 5.138 7.923 4.85 7.923 5.779 0 .441-.128.928-.283 1.083-.214.214-.202.38.052.684.702.843-.193 1.012-6.31 1.188-3.188.092-8.764.268-12.392.392s-9.415.226-12.86.228c-5.619.003-6.313-.041-6.751-.423Zm55.845-2.085c.044-.377-.038-.826-.181-.997-.426-.512-.04-.633 2.024-.633 1.47 0 1.893-.07 1.684-.278-.303-.302-.766-.33-3.361-.208l-1.71.081-4.398-2.381a995.766 995.766 0 0 0-6.718-3.607c-1.276-.675-2.485-1.362-2.687-1.526-.417-.34-2.443-.655-2.443-.379 0 .1.302.316.672.48.369.165 4.044 2.052 8.166 4.194l7.495 3.894-.252.721c-.37 1.059-.113 1.491.835 1.4.668-.065.808-.187.874-.761Zm24.209-1.053c.188-.166-4.485-.044-5.843.154-.838.121-.01.146 2.198.066 1.949-.071 3.589-.17 3.645-.22Zm-45.013-.333c1.523 0 2.769-.083 2.768-.183-.001-.101-.468-.446-1.038-.768-.57-.321-3.435-2.053-6.366-3.847l-5.33-3.263-5.328-.148c-2.93-.082-5.532-.07-5.781.025-.383.146-.281.28.653.86.609.377 2.86 2.238 5.003 4.134l3.898 3.448 4.375-.129c2.406-.071 5.622-.129 7.146-.129Zm28.485-.765c-.28-.279-3.729-.454-3.729-.189.001.367.463.466 2.166.466 1.376 0 1.771-.07 1.563-.277Zm4.591.026c.403-.249-.756-.458-2.54-.46-1.238-.001-1.387.047-1.125.362.321.386 3.078.459 3.665.098Zm2.918-.406c-.47-.206-1.361-.411-1.979-.457-1.044-.076-2.676-.6-4.532-1.454-.423-.195-1.028-.35-1.343-.346-.365.006-.084.19.769.506l2.016.746c.369.137.672.347.672.468 0 .121.363.22.808.22.445 0 1.022.161 1.283.358.289.218.997.353 1.817.345l1.344-.012-.855-.374Zm-1.566-.038c-.071-.115.142-.157.474-.094.332.064.603.158.603.209 0 .188-.952.087-1.077-.115Zm4.806.28c-.3-.057-.85-.059-1.221-.003-.372.056-.126.103.546.105.672.002.976-.044.675-.102Zm-16.628-.349c-.094-.085-.832-.494-1.641-.909-1.293-.662-1.626-.734-2.773-.599-1.074.127-1.224.199-.851.408.249.14 1.077.231 1.84.201.762-.029 1.455.058 1.539.193.1.161-.235.194-.959.095-1.275-.175-1.445.041-.383.487.732.307 3.547.415 3.228.124Zm3.859-.254c.002-.249-.705-.426-2.284-.572-1.43-.132-1.723.171-.575.595.618.228 2.857.21 2.859-.023Zm4.264-.174c-.283-.266-3.53-.485-3.53-.238 0 .267.7.397 2.309.428.864.017 1.359-.06 1.221-.19Zm-2.471-.773.774-.018-.895-.328c-1.293-.474-3.741-.752-3.523-.4.094.151.412.279.706.283.295.005.752.171 1.017.371.265.2.631.306.814.236.183-.07.681-.135 1.107-.144Zm-1.608-.388a.938.938 0 0 1 .61 0c.168.067.031.123-.305.123-.336 0-.473-.056-.305-.123Zm-2.382.125c-.336-.137-1.271-.29-2.077-.34-1.328-.082-1.421-.057-.991.265.309.231 1.031.349 2.076.339 1.335-.013 1.501-.057.992-.264Zm-5.819-.748c-.381-.38-3.464-.584-3.464-.23 0 .273.907.48 2.565.586 1.16.074 1.282.026.899-.356Zm3.491.011c.821.045.909.008.534-.22-.573-.349-3.092-.511-3.092-.2 0 .302 1.027.692 1.337.508.13-.078.68-.117 1.221-.088Zm5.707-.415c.272-.171.272-.222 0-.306-.625-.191-4.363.07-4.223.295.175.281 3.781.291 4.223.011Zm4.594-.394c.077-.2.224-.312.326-.249.185.114 3.191-1.242 3.427-1.546.067-.086.397-.182.733-.214.336-.031 1.515-.164 2.619-.296 2.003-.238 2.017-.236 4.398.703 2.982 1.176 5.302 1.452 7.307.87.975-.282 1.401-.536 1.495-.893.116-.442.242-.476 1.133-.303.552.107 1.993.213 3.202.236 1.209.023 3.463.275 5.008.56 6.835 1.258 12.479 1.548 17.038.873 4.184-.62 6.43-1.662 7.861-3.65.43-.597.827-1.086.881-1.086.054 0 .487.34.962.756.978.856 1.026.818.46-.366-.404-.844-.403-.846.332-1.464 1.107-.928 1.417-2.356 1.407-6.477-.006-2.428-.108-3.71-.327-4.103-.392-.705-2.16-1.522-5.016-2.317l-2.175-.605.162 3.939c.223 5.438.321 5.993 1.108 6.276 1.546.554 2.47 1.046 2.47 1.316 0 .206-.376.164-1.301-.148-3.497-1.177-5.512-1.104-10.176.369-5.52 1.743-9.613 2.224-17.228 2.025-6.06-.158-6.46-.255-12.355-2.985-5.464-2.53-5.848-2.624-9.403-2.294-1.594.148-3.287.43-3.762.627-1.647.682-4.406 3.793-4.406 4.968 0 .144 1.017-.771 2.26-2.035l2.259-2.297 3.099-.395c1.704-.218 3.299-.466 3.542-.552.34-.119.38-.086.17.141-.151.163-1.415.463-2.81.665-3.896.566-4.026.626-6.095 2.848-1.488 1.598-1.983 2.333-2.528 3.759-.373.974-.612 1.942-.532 2.15.272.707.971.248 1.289-.848.325-1.118 1.482-2.783 3.279-4.72l1.075-1.156 3.054-.118c1.921-.074 2.827-.038 2.443.098-.336.118-1.668.226-2.96.24l-2.349.024-1.459 1.766c-.802.971-1.64 2.046-1.862 2.388-.418.645-1.417 3.448-1.279 3.586.044.043.372.005.729-.084.45-.113.83-.511 1.231-1.291.32-.62 1.213-1.758 1.986-2.529 1.311-1.306 1.483-1.4 2.549-1.4.629 0 1.846-.07 2.706-.154 2.064-.202 1.639.184-.815.74-1.551.351-2.131.626-3.237 1.534-1.082.888-1.354 1.256-1.377 1.868l-.029.762-.167-.731-.168-.73-.535.852c-.295.469-.536.99-.537 1.157-.001.428.718.38.888-.06Zm-15.438-.146c-.063-.1-.441-.255-.841-.342-.4-.088-.789-.259-.864-.38-.075-.12-1.302-.793-2.727-1.494-1.891-.93-2.878-1.277-3.653-1.284-.584-.005-1.062.071-1.062.169 0 .19.978.49 1.359.417.126-.024.558-.016.962.017l.732.061-.855.154-.855.155.832.422c.873.444 2.17.614 1.511.198a.965.965 0 0 0-.733-.082c-.298.104-.324.065-.109-.167.222-.24.397-.239.855.007.317.17.906.387 1.309.484.603.145.494.182-.611.209-1.097.026-1.26.081-.885.298.253.147 1.022.29 1.711.317 1.998.082 2.318.198 1.006.365l-1.221.154.818.234c.983.28 3.481.347 3.321.088Zm3.175.026c.685-.003.696-.02.245-.36-.292-.22-1.038-.36-1.94-.364l-1.466-.006.733.49c.405.272.951.436 1.221.368.269-.069.812-.126 1.207-.128Zm-1.863-.413c.176-.07.387-.062.468.02.081.08-.063.138-.321.127-.284-.011-.342-.07-.147-.147Zm5.827.045c0-.201-.186-.366-.414-.366-.227 0-.951-.065-1.608-.146l-1.195-.145.856.497c1.036.602 2.361.692 2.361.16Zm1.561-.266c-.596-.187-1.196-.45-1.331-.585-.135-.135-.417-.237-.625-.226-.328.016-.33.037-.012.153.201.074.531.274.733.443.404.34 1.082.544 1.832.55.269.002 0-.148-.597-.335Zm-6.854-.556c0-.257-1.203-.518-2.381-.518-.732 0-.811.052-.551.365.332.399 2.932.534 2.932.153Zm3.176-.274c0-.134-.206-.244-.458-.244s-.802-.069-1.222-.152c-.805-.161-1.112.269-.336.471.814.212 2.016.167 2.016-.075Zm.977-.244c-.478-.308-.802-.308-.611 0 .083.134.337.242.564.24.356-.003.363-.037.047-.24Zm-6.474-.742c-.672-.262-1.771-.471-2.443-.466l-1.221.01.855.467c.595.325 1.337.467 2.443.466l1.588-.001-1.222-.476Zm4.499.262c-.19-.1-1.06-.316-1.934-.482-2.272-.432-2.481-.575-1.099-.753 1.158-.15 1.127-.16-.59-.195-.997-.022-1.749.024-1.671.102.429.428 3.548 1.447 4.513 1.475.62.018.972-.048.781-.147Zm6.727-.712c-.238-.223-2.588-.776-3.115-.733-.401.033 2.276.897 2.87.927.29.014.386-.062.245-.194Zm-8.483-.173c-.081-.081-.291-.09-.468-.02-.195.078-.137.136.148.148.257.01.402-.047.32-.128Zm-4.453-.34c-.707-.303-3.524-.303-3.054 0 .202.13 1.081.23 1.955.223 1.111-.01 1.441-.077 1.099-.223Zm6.197-.426c.126-.235.304-.975.397-1.645.092-.67.502-2.122.911-3.227.73-1.972.759-2.01 1.566-2.01.601 0 1.084-.236 1.8-.88 1.523-1.373 1.149-.53-.577 1.302-1.858 1.97-2.988 3.9-3.221 5.504l-.172 1.176.683-.08c.499-.058.831-.34 1.239-1.054.306-.536.5-1.166.431-1.4-.087-.297.01-.427.322-.427.257 0 .701-.41 1.046-.966.33-.532.878-1.086 1.218-1.232.341-.146.98-.752 1.421-1.348.654-.883.943-1.082 1.573-1.082.424 0 1.429-.135 2.233-.301 1.16-.239 1.482-.239 1.562 0 .059.177.536.3 1.159.3 1.398 0 1.839-.184 1.649-.69-.133-.353-.099-.362.261-.07.319.259 1.349.327 4.504.298 2.25-.02 4.915.075 5.923.212 4.533.62 4.703.616 5.564-.106 1.105-.927 1.073-1.874-.098-2.976l-.885-.833.702.166c.386.09 1.231.386 1.878.657 1.167.49 1.179.49 1.815.016 1.567-1.167 2.252-4.291 1.331-6.07-.272-.526-.986-1.432-1.586-2.013l-1.09-1.058-.823 3.372c-.737 3.02-.874 3.363-1.311 3.292-2.603-.423-3.435-.338-6.607.676-4.19 1.339-7.982 1.972-11.893 1.986-1.71.006-3.211-.052-3.335-.128-.124-.077-1.117-.156-2.205-.177-1.435-.027-2.097.062-2.406.323-.235.198-1.062.672-1.839 1.055-.777.382-1.774 1.045-2.215 1.472-1.052 1.019-1.832 3.404-2.032 6.216-.15 2.101-.137 2.176.362 2.176.284 0 .619-.192.745-.426Zm7.358-.488c.004-.384-.783-.397-1.162-.019-.219.219-.159.351.256.563.563.288.898.086.906-.544Zm-18.807.366c0-.203-.072-.213-1.893-.267-1.211-.036-1.765.2-.873.37.789.152 2.766.078 2.766-.103Zm3.878-.207c-.185-.117-1.051-.212-1.924-.212-1.047 0-1.468.075-1.237.221.193.122 1.059.218 1.924.213.992-.006 1.449-.088 1.237-.222Zm4.672.024c0-.145-.864-.237-2.137-.227-1.422.012-1.974.088-1.649.227.692.297 3.786.297 3.786 0Zm1.369-2.444c.121-1.883.283-2.575.898-3.833.632-1.292.966-1.663 2.112-2.35.749-.45 1.857-1.04 2.461-1.312 1.628-.732.462-.67-1.865.1-2.355.78-3.025 1.382-4.257 3.837-1.287 2.564-1.319 3.925-.056 2.41.51-.614.503-.57-.08.499-.658 1.207-.677 2.27-.053 3.02.484.58.688.004.84-2.371Zm43.496-1.978c-.087-1.226-.159-2.597-.159-3.045 0-.448-.088-.815-.196-.815-.109 0-.576.612-1.039 1.36-1.561 2.522-2.201 3.289-3.342 4.01l-1.137.72h6.032l-.159-2.23Zm-70.037.324 1.089-.165-5.487-3.202a781.16 781.16 0 0 0-7.731-4.464l-2.244-1.262-.365-1.626a71.503 71.503 0 0 1-.536-2.6c-.094-.536-.225-1.068-.292-1.183-.094-.163-3.435 12.618-3.471 13.277-.004.088.814.341 1.819.564 1.005.223 1.891.508 1.969.634.161.26 13.548.284 15.249.027Zm-33.747-1.167c.581-.116.767-.294.824-.792.063-.54.241-.676 1.113-.859.854-.179 1.038-.316 1.038-.772 0-.876-.258-1.325-.763-1.325-.302 0-.613-.322-.882-.913a55.92 55.92 0 0 0-.456-.986c-.022-.04-.301-.008-.622.072-1.02.256-1.658 1.529-1.872 3.734-.215 2.217-.222 2.208 1.62 1.841Zm54.866-.843c.061-.061-.054-1.15-.255-2.421-.202-1.271-.442-4.494-.533-7.162l-.167-4.85-1.569-.32c-2.66-.54-2.472-1.035.595-1.568 2.16-.375 7.358-.158 9.115.38 1.107.34 1.255.453.997.763-.265.319-.222.327.348.068.704-.32.751-.416.443-.9-.888-1.396-10.785-1.647-13.471-.342l-.855.415-.079 2.314c-.14 4.128 1.04 11.8 2.052 13.339.361.55.517.592 1.832.497.79-.057 1.487-.153 1.547-.213Zm-17.801-4.282c-1.137-7.334-6.397-38.032-8.091-47.219-1.152-6.248-1.66-8.451-1.762-7.63-.115.937.704 5.835 6.329 37.835.801 4.555 2.001 11.143 2.668 14.639.667 3.496 1.212 6.446 1.212 6.556 0 .11.063.138.14.061.077-.077-.146-1.986-.496-4.242Zm28.367-1.24c1.14-1.241 2.282-3.59 2.282-4.697 0-1.068-.78-2.186-1.526-2.186-.929 0-1.406.693-1.408 2.048-.001 1.125-.277 3.336-.633 5.077-.192.944.277.855 1.285-.242Zm-62.724-2.836c.303-.364.514.233-8.818-24.995-2.552-6.9-4.687-12.593-4.744-12.651-.057-.058-.231.022-.387.177-.36.36-.87-1.157 5.299 15.762 1.918 5.26 5.184 14.461 6.854 19.304.925 2.682 1.227 3.087 1.796 2.403Zm3.881-1.251c.059-.046-4.419-6.355-4.741-6.68-.104-.104.278.949 1.905 5.252l.747 1.976 1.009-.247c.555-.136 1.041-.271 1.08-.301Zm106.442-29.098c2.361-1.149 4.471-2.808 6.04-4.75 1.252-1.549 1.433-2.076.712-2.076-.63 0-2.54-1.731-3.932-3.564l-1.165-1.535-.146 1.393c-.177 1.676-1.243 5.855-1.844 7.225l-.433.987.001-3.532c.001-3.257-.384-6.994-.798-7.74-.113-.204-.589.297-1.38 1.455-.665.972-2.059 2.626-3.098 3.676l-1.889 1.91 1.218 1.459c1.24 1.486 1.95 2.637 1.95 3.162 0 .161-.352-.19-.781-.78-.77-1.054-.784-1.062-.953-.462-.095.335-.183 1.11-.196 1.723-.019.877.099 1.23.554 1.657 1.347 1.262 3.252 1.197 6.14-.208Zm-14.353-8.28c1.368-.62 3.283-2.556 4.083-4.13.951-1.872 1.206-3.625.869-5.973-.248-1.72-1.218-4.52-1.568-4.52-.068 0-.337.48-.596 1.065-.26.585-.568 1.122-.684 1.192-.116.07-.22-.655-.232-1.613-.028-2.243-.627-3.435-2.734-5.448l-1.587-1.516.122-2.33c.114-2.166.087-2.349-.378-2.597-.492-.263-3.574-.142-5.149.202-.562.122-.667.084-.511-.186.107-.186-.132-.036-.532.335-.452.419-.946.65-1.304.61-.52-.06-.606.076-.887 1.395-.393 1.844-.443 6.065-.07 5.835.406-.25 1.426.855 1.69 1.832.265.98.019 2.949-.593 4.747-.68 1.995-.493 2.393 1.254 2.68.881.145 1.063.282 1.289.965.145.438.187.995.094 1.237-.15.39-.073.422.665.274.459-.092 1.605-.29 2.545-.44.941-.15 1.83-.365 1.977-.478.258-.199.588-.047.588.27 0 .086-1.095.422-2.433.748-2.365.576-2.429.61-2.281 1.198.084.333.375.786.647 1.005.272.22.722 1.099.999 1.953.365 1.128.67 1.637 1.114 1.857.887.44 2.412.37 3.603-.17Zm-5.191-3.905c.083-.134.371-.244.639-.244.269 0 .421.11.338.244-.083.134-.371.244-.64.244-.268 0-.42-.11-.337-.244Zm-3.298-4.905c0-.346 1.274-.538 1.721-.26.337.21.52.163.869-.221.364-.402.39-.57.145-.96-.163-.261-.193-.474-.066-.474.435 0 .541.964.165 1.5-.29.412-.646.54-1.603.573-.677.024-1.231-.047-1.231-.158Zm3.298-6.056c-.085-.268-.313-.488-.505-.488-.193 0-.35-.104-.35-.232 0-.28 1.562-.739 2.52-.74.378-.001.9-.115 1.16-.254.26-.139.473-.156.473-.04s-.275.339-.611.491c-.336.153-.611.432-.611.62 0 .39-1.023 1.13-1.562 1.13-.198 0-.429-.22-.514-.487Zm1.71-.488c.083-.134-.02-.243-.23-.243-.209 0-.381.11-.381.243s.104.244.23.244c.127 0 .298-.11.381-.244Zm-3.42-1.218c-.116-.362-.37-.487-.994-.487-.995 0-1.062-.276-.225-.933.936-.734 2.866-1.103 4.823-.921 2.32.215 2.984.619 1.037.63-2.381.014-4.03.666-4.03 1.593 0 .278.11.275.671-.016.37-.193.947-.34 1.283-.326.558.021.548.038-.122.2a6.46 6.46 0 0 0-1.267.462c-.749.4-.998.358-1.176-.202Zm-104.169 11.69c.607-.004 3.397-2.248 3.397-2.732 0-.17-.509-.205-1.506-.1-2.722.283-4.357 1.753-4.357 3.917v.887l.939-.985c.585-.613 1.161-.986 1.527-.988Zm4.844-.642c.595-.65 1.301-1.429 1.57-1.73l.488-.548h-.592c-.404 0-1.291.647-2.789 2.035-1.941 1.796-2.159 2.08-1.865 2.433.303.365.41.338 1.22-.304.488-.387 1.374-1.235 1.968-1.886Zm13.088-13.23c5.711-5.688 10.383-10.484 10.383-10.657 0-.173-.094-.314-.208-.314-.294 0-21.534 20.942-21.534 21.232 0 .856 2.133-1.071 11.359-10.26Zm106.09 5.968c1.839-1.542 2.688-5.437 1.578-7.23-1.433-2.31-4.453-1.442-4.453 1.28 0 .907.241.77.603-.341.325-1.002 1.396-1.561 2.247-1.174 1.042.473 1.631 2.725 1.057 4.045-.14.323-.167.116-.079-.616.148-1.23-.406-2.916-.957-2.916-.907 0-1.227 1.278-.428 1.705.801.427.66 1.837-.27 2.703-.757.706-1.754 1.025-1.256.403.134-.168.293-.661.354-1.097.089-.636.026-.791-.321-.791-.238 0-.521-.137-.63-.305-.233-.36-.486 1.735-.353 2.93.072.65.152.747.427.519.266-.22.339-.195.339.114 0 .424.831 1.37 1.203 1.37.124 0 .547-.27.939-.599Zm-23.275-3.544c-.244-.268-.508-.424-.587-.345-.079.079.07.299.33.489.67.488.776.428.257-.144Zm-70.771-14.419c.467-.465.34-.715-.195-.382-.494.308-.653.675-.293.675.107 0 .327-.132.488-.293Zm6.724-2.896c.36-.548.654-1.098.654-1.223 0-.432-2.058-2.452-2.972-2.916-.55-.28-1.418-.467-2.167-.467-1.047 0-1.363.112-1.941.689-.762.76-1.223 2.093-1.225 3.544l-.001.944 1.094-1.005c.601-.553 1.254-1.005 1.45-1.005.792 0 1.603.5 1.749 1.08.117.465.423.693 1.289.957a32.27 32.27 0 0 0 1.276.373c.077.014.434-.423.794-.97Zm34.601 61.67c.228-.425.113-.767-.714-2.135-1.242-2.053-1.264-2.807-.128-4.374 1.572-2.168 1.827-2.64 1.828-3.383.002-.945-.59-1.781-1.557-2.2-.501-.218-.608-.335-.311-.341.696-.015 2.046.703 2.427 1.29.88 1.356.695 2.554-.72 4.665-1.011 1.506-1.055 2.559-.173 4.131.713 1.272.592 2.043-.404 2.574-.477.255-.497.237-.248-.228Zm-3.243-.907c-2.026-1.966-2.126-3.468-.396-5.927.809-1.15 1.052-1.713 1.032-2.395-.023-.824.001-.856.319-.423.524.715.416 1.641-.389 3.338-.898 1.894-.92 2.84-.099 4.345.931 1.705.711 2.206-.467 1.062Zm-95.14 46.588c-1.211.865-3.037 2.917-5.477 6.154-2.424 3.237-5.227 7.347-8.409 12.329a28.75 28.75 0 0 1-.704 1.097c-3.5 5.489-6.523 8.234-9.068 8.234-1.303 0-2.372-.388-3.205-1.163-.833-.776-1.25-1.761-1.25-2.954 0-1.268.386-2.35 1.16-3.245.772-.895 1.689-1.342 2.75-1.342.726 0 1.28.186 1.658.559.379.358.568.873.568 1.544 0 .612-.166 1.082-.5 1.41-.333.328-.992.597-1.977.805-.742.15-1.288.381-1.636.694-.364.298-.546.694-.546 1.186 0 .433.288.85.864 1.253.576.388 1.235.582 1.977.582 2.167 0 5.137-2.931 8.91-8.794a225.495 225.495 0 0 1 3.522-5.326c2.97-4.326 5.546-7.764 7.727-10.315 2.197-2.566 3.637-3.849 4.319-3.849.166 0 .303.052.409.157.106.089.159.208.159.358 0 .522-.743 2.498-2.228 5.929-.424.985-.75 1.753-.977 2.305-2.56 5.937-4.318 10.204-5.273 12.8-.954 2.58-1.492 4.475-1.613 5.683 4-7.459 8.068-13.858 12.204-19.199C92.63 116.678 95.273 114 96.41 114c.167 0 .303.045.41.134.105.075.158.164.158.269 0 .134-.75 1.85-2.25 5.146-1.5 3.282-2.909 6.594-4.227 9.936-1.212 3.147-2.106 5.653-2.682 7.518-.56 1.85-.84 3.192-.84 4.028a.65.65 0 0 0 .136.403c.106.104.212.156.318.156.273 0 .833-.365 1.682-1.096.848-.731 2.363-2.171 4.545-4.319 2.106-2.058 3.727-3.55 4.864-4.475 1.136-.925 1.924-1.388 2.363-1.388.031 0 .144.023.341.068a.956.956 0 0 0 .159.022c-1.121.582-3.174 2.387-6.159 5.415-.94.97-1.674 1.716-2.204 2.238l-.091.089c-3.212 3.208-5.462 4.811-6.75 4.811-.94 0-1.705-.388-2.296-1.163-.59-.776-.886-1.79-.886-3.044 0-1.402.364-3.005 1.09-4.81.743-1.82 1.993-4.155 3.75-7.004.562-.895 1.94-2.939 4.137-6.132a2790.96 2790.96 0 0 0 3.978-5.795c-1.622 1.104-3.576 3.103-5.864 5.997-2.288 2.894-4.91 6.668-7.864 11.322-1.181 1.85-2.454 4.065-3.818 6.646-1.379 2.596-2.454 3.894-3.227 3.894-.712 0-1.296-.388-1.75-1.164-.44-.776-.66-1.79-.66-3.043 0-2.909 3.554-9.883 10.66-20.922l1.682-2.596Z" />
  <path fill="#000"
    d="M99.364 137.921c-.349.969-.591 1.693-.728 2.17-.136.462-.204.821-.204 1.074 0 .313.114.537.34.671.228.135.584.202 1.069.202 1.197 0 2.462-.343 3.795-1.03 1.334-.701 3.212-2.095 5.637-4.184.803-.686 1.863-1.618 3.182-2.797 2.757-2.476 4.447-3.715 5.068-3.715.03 0 .098.015.204.045.106.015.19.03.25.045-1 .537-2.53 1.798-4.591 3.782a91.666 91.666 0 0 1-2.431 2.327c-2.97 2.655-5.22 4.393-6.75 5.214-1.531.82-3.031 1.23-4.5 1.23-1.561 0-2.819-.432-3.773-1.298-.94-.88-1.41-2.021-1.41-3.423 0-1.179.357-2.327 1.069-3.446.712-1.134 1.788-2.245 3.227-3.334 1.227-.925 2.462-1.641 3.705-2.148 1.257-.523 2.394-.784 3.409-.784.924 0 1.651.261 2.182.784.53.507.795 1.208.795 2.103 0 1.432-.886 2.76-2.659 3.983-1.773 1.223-4.068 2.066-6.886 2.529Zm.272-.739c1.909-.283 3.606-1.104 5.091-2.461 1.485-1.358 2.228-2.671 2.228-3.939 0-.358-.107-.663-.319-.917-.197-.254-.431-.38-.704-.38-.773 0-1.803.745-3.091 2.237-1.273 1.477-2.341 3.297-3.205 5.46Z" />
  <path fill="#000"
    d="M116 131.834a85.15 85.15 0 0 0-1.659 1.634c-1.061 1.074-1.705 1.611-1.932 1.611a.427.427 0 0 1-.273-.09.414.414 0 0 1-.091-.268c0-.149.341-.56 1.023-1.231.394-.388.72-.716.977-.985l1.16-1.186a29.225 29.225 0 0 0 1.5-1.678c.454-.552.84-1.059 1.159-1.521l7.363-11.838 4.455-.492-9.955 18.058c-.424.761-.992 1.775-1.704 3.043-1.409 2.462-2.114 3.909-2.114 4.341 0 .179.061.328.182.448a.767.767 0 0 0 .523.179c.636 0 2.568-1.581 5.795-4.744l1.705-1.678c1.909-1.85 3.356-3.163 4.341-3.939 1-.79 1.704-1.186 2.113-1.186.046 0 .167.023.364.068a.956.956 0 0 0 .159.022c-1.318.731-3.174 2.335-5.568 4.811-.318.328-.553.567-.705.716-.288.298-.697.716-1.227 1.253-3.758 3.849-6.394 5.773-7.909 5.773-.94 0-1.69-.276-2.25-.828-.546-.567-.818-1.327-.818-2.282 0-.776.272-1.82.818-3.133.56-1.313 1.416-2.939 2.568-4.878Z" />
  <path fill="#000"
    d="M133.25 123.89c0-.596.258-1.133.773-1.611.53-.477 1.121-.716 1.772-.716.561 0 1.008.164 1.341.493.349.328.523.76.523 1.297 0 .642-.242 1.201-.727 1.679a2.42 2.42 0 0 1-1.727.693c-.622 0-1.107-.156-1.455-.47-.333-.328-.5-.783-.5-1.365Zm-4.25 7.989-1.386 1.32c-.212.194-.485.455-.819.783-.651.642-1.045.962-1.181.962a.9.9 0 0 1-.319-.044c-.075-.045-.113-.105-.113-.179 0-.179.288-.515.863-1.007.41-.373.743-.679 1-.918l1.5-1.477.25-.246c.864-.85 1.553-1.588 2.069-2.215l4.841-.336-4.705 8.481a80.815 80.815 0 0 0-1.636 3.066c-.364.76-.546 1.238-.546 1.432 0 .119.038.216.114.291a.405.405 0 0 0 .295.112c.425 0 1.167-.418 2.228-1.254 1.075-.85 2.416-2.081 4.022-3.692 2.788-2.774 4.69-4.572 5.705-5.392 1.015-.836 1.75-1.254 2.204-1.254.031 0 .144.023.341.068a.987.987 0 0 0 .182.022c-1.197.627-3.129 2.327-5.795 5.102-.879.91-1.561 1.611-2.046 2.103-2.06 2.074-3.666 3.484-4.818 4.229-1.136.746-2.197 1.119-3.182 1.119-.879 0-1.568-.253-2.068-.761-.485-.522-.727-1.245-.727-2.17 0-1.208.992-3.498 2.977-6.87.333-.552.583-.977.75-1.275Z" />
  <path fill="#000"
    d="M148.659 134.027c.849.09 1.515.403 2 .94.5.522.75 1.186.75 1.991 0 .895-.227 1.873-.682 2.932-.136.298-.204.484-.204.559 0 .075.03.142.091.201a.57.57 0 0 0 .295.068c.243 0 1.129-.776 2.659-2.328.788-.79 1.417-1.417 1.887-1.879 2.348-2.298 4.09-3.901 5.227-4.811 1.151-.925 1.954-1.388 2.409-1.388.045 0 .159.023.341.068a.978.978 0 0 0 .182.022c-.788.433-1.743 1.156-2.864 2.171-1.121.999-2.712 2.58-4.773 4.743-.212.239-.522.567-.932.985-2.924 3.103-5.159 4.654-6.704 4.654-.667 0-1.205-.216-1.614-.649-.409-.432-.613-1.007-.613-1.723 0-.835.371-1.894 1.113-3.177.743-1.298 1.114-2.089 1.114-2.372a.36.36 0 0 0-.159-.313.611.611 0 0 0-.409-.135c-.197 0-.515.053-.955.157-.424.104-.742.157-.954.157a.546.546 0 0 1-.364-.135.557.557 0 0 1-.136-.38c0-.328.416-.522 1.25-.582.833-.059 1.401-.194 1.704-.403.424-.283 1.106-1.156 2.046-2.618.954-1.476 1.984-2.215 3.091-2.215.742 0 1.356.224 1.84.671.485.433.728.978.728 1.634 0 .552-.182 1.007-.546 1.365-.348.343-.803.515-1.363.515-.516 0-.94-.157-1.273-.47a1.66 1.66 0 0 1-.5-1.231c0-.239.045-.455.136-.649a1.34 1.34 0 0 1 .432-.537.217.217 0 0 0-.159-.067 1.04 1.04 0 0 0-.273-.023c-.303 0-.825.605-1.568 1.813-.742 1.208-1.492 2.021-2.25 2.439Zm-6.795-2.193c-.44.418-.993.962-1.659 1.634-1.061 1.074-1.705 1.611-1.932 1.611a.427.427 0 0 1-.273-.09.409.409 0 0 1-.091-.268c0-.149.341-.56 1.023-1.231.394-.388.72-.716.977-.985l1.159-1.186c.5-.492.94-.977 1.318-1.454.379-.492.629-.85.75-1.074l7.023-12.553 4.364-.448-14.273 26.852-4.523.313 6.137-11.121Zm49.341-16.693c-1.213.865-3.038 2.917-5.478 6.154-2.424 3.237-5.227 7.347-8.409 12.329-.151.254-.386.619-.704 1.097-3.5 5.489-6.523 8.234-9.069 8.234-1.303 0-2.371-.388-3.204-1.163-.833-.776-1.25-1.761-1.25-2.954 0-1.268.386-2.35 1.159-3.245s1.689-1.342 2.75-1.342c.727 0 1.28.186 1.659.559.379.358.568.873.568 1.544 0 .612-.166 1.082-.5 1.41-.333.328-.992.597-1.977.805-.742.15-1.288.381-1.636.694-.364.298-.546.694-.546 1.186 0 .433.288.85.864 1.253.576.388 1.235.582 1.977.582 2.167 0 5.136-2.931 8.909-8.794a226.615 226.615 0 0 1 3.523-5.326c2.97-4.326 5.545-7.764 7.727-10.315 2.197-2.566 3.637-3.849 4.318-3.849.167 0 .303.052.409.157a.44.44 0 0 1 .16.358c0 .522-.743 2.498-2.228 5.929-.424.985-.75 1.753-.977 2.305-2.561 5.937-4.318 10.204-5.273 12.8-.954 2.58-1.492 4.475-1.613 5.683 4-7.459 8.068-13.858 12.204-19.199 4.152-5.355 6.796-8.033 7.932-8.033.167 0 .303.045.409.134.106.075.159.164.159.269 0 .134-.75 1.85-2.25 5.146a203.55 203.55 0 0 0-4.227 9.936c-1.212 3.147-2.106 5.653-2.682 7.518-.561 1.85-.841 3.192-.841 4.028a.65.65 0 0 0 .137.403c.106.104.212.156.318.156.272 0 .833-.365 1.682-1.096.848-.731 2.363-2.171 4.545-4.319 2.106-2.058 3.727-3.55 4.864-4.475 1.136-.925 1.924-1.388 2.363-1.388.031 0 .144.023.341.068a.956.956 0 0 0 .159.022c-1.121.582-3.174 2.387-6.159 5.415-.939.97-1.674 1.716-2.204 2.238l-.091.089c-3.212 3.208-5.462 4.811-6.75 4.811-.94 0-1.705-.388-2.296-1.163-.591-.776-.886-1.79-.886-3.044 0-1.402.364-3.005 1.091-4.81.742-1.82 1.992-4.155 3.75-7.004.56-.895 1.939-2.939 4.136-6.132a2594.83 2594.83 0 0 0 3.977-5.795c-1.621 1.104-3.575 3.103-5.863 5.997-2.288 2.894-4.909 6.668-7.864 11.322-1.182 1.85-2.454 4.065-3.818 6.646-1.379 2.596-2.455 3.894-3.227 3.894-.712 0-1.296-.388-1.75-1.164-.44-.776-.659-1.79-.659-3.043 0-2.909 3.553-9.883 10.659-20.922l1.682-2.596Z" />
  <path fill="#000"
    d="M205.455 131.834c-.44.418-.993.962-1.66 1.634-1.06 1.074-1.704 1.611-1.931 1.611a.392.392 0 0 1-.25-.09.393.393 0 0 1-.114-.224c0-.208.348-.604 1.045-1.186.47-.402.849-.745 1.137-1.029l1.454-1.365c.319-.298.644-.611.978-.94.333-.343.78-.805 1.341-1.387l5.022-.336-5.113 8.66a73.057 73.057 0 0 0-1.455 2.573c-.333.657-.5 1.052-.5 1.186 0 .12.053.239.159.358a.502.502 0 0 0 .364.157c.682 0 1.992-1.149 3.932-3.446 1.954-2.297 4.181-5.348 6.681-9.152l5.569-.336-5.478 9.757c-.5.895-.856 1.573-1.068 2.036-.197.447-.295.768-.295.962 0 .09.038.164.113.224a.509.509 0 0 0 .319.089c.409 0 .947-.231 1.613-.693.667-.463 1.599-1.253 2.796-2.372.742-.701 1.757-1.656 3.045-2.865 3.743-3.565 5.97-5.348 6.682-5.348.045 0 .167.023.364.068a.93.93 0 0 0 .159.022c-1.122.582-3.061 2.26-5.819 5.035a190.138 190.138 0 0 1-2.568 2.528l-.113.112c-3.288 3.193-5.743 4.789-7.364 4.789-.924 0-1.667-.261-2.227-.783-.546-.537-.818-1.254-.818-2.149 0-.522.128-1.141.386-1.857.273-.731.864-1.976 1.773-3.737-2.743 3.73-4.69 6.087-5.841 7.071-1.137.97-2.25 1.455-3.341 1.455-.864 0-1.553-.261-2.068-.783-.516-.537-.773-1.254-.773-2.149 0-.76.265-1.715.795-2.864.546-1.163 1.569-2.909 3.069-5.236Z" />
  <path fill="#000"
    d="M229.568 130.917c-.954.656-1.939 1.514-2.954 2.573-1.016 1.059-1.629 1.589-1.841 1.589a.427.427 0 0 1-.273-.09.409.409 0 0 1-.091-.268c0-.179.349-.59 1.046-1.231.318-.283.575-.515.772-.694l1.387-1.298c.166-.149.394-.358.681-.626 1.107-1.029 1.781-1.716 2.023-2.059.106-.164.243-.395.409-.693.349-.612.667-.918.955-.918.136 0 .257.052.363.157.122.104.182.216.182.335 0 .12-.204.403-.613.851-.394.432-.591.805-.591 1.119 0 .268.424 1.036 1.272 2.304.864 1.268 1.296 2.626 1.296 4.073a4.71 4.71 0 0 1-.386 1.924c-.243.567-.66 1.179-1.25 1.835 1.909-1.477 4.151-3.423 6.727-5.84 2.591-2.432 4.212-3.648 4.863-3.648.334 0 .584-.059.75-.179-.03 0-.068.023-.113.068l-.137.201c-1.197.656-2.863 2.074-5 4.252-.772.79-1.371 1.394-1.795 1.812-2.803 2.73-4.924 4.505-6.364 5.326-1.439.805-2.901 1.208-4.386 1.208-1.167 0-2.152-.298-2.955-.895-.787-.597-1.181-1.32-1.181-2.171 0-.566.189-1.044.568-1.432a1.964 1.964 0 0 1 1.432-.581c.5 0 .894.156 1.181.469.303.299.455.709.455 1.231 0 .388-.152.746-.455 1.074-.287.313-.606.47-.954.47-.136 0-.258-.007-.364-.022a1.893 1.893 0 0 1-.272-.067c.227.253.462.44.704.559.258.119.53.179.818.179 1.228 0 2.212-.888 2.955-2.663.757-1.775 1.136-4.139 1.136-7.093v-1.141Z" />
  <path fill="#000"
    d="M246.205 123.89c0-.596.257-1.133.772-1.611.531-.477 1.121-.716 1.773-.716.561 0 1.008.164 1.341.493.348.328.523.76.523 1.297 0 .642-.243 1.201-.728 1.679a2.416 2.416 0 0 1-1.727.693c-.621 0-1.106-.156-1.454-.47-.334-.328-.5-.783-.5-1.365Zm-4.25 7.989-1.387 1.32c-.212.194-.485.455-.818.783-.652.642-1.045.962-1.182.962a.898.898 0 0 1-.318-.044c-.076-.045-.114-.105-.114-.179 0-.179.288-.515.864-1.007.409-.373.742-.679 1-.918l1.5-1.477.25-.246c.864-.85 1.553-1.588 2.068-2.215l4.841-.336-4.704 8.481a81.097 81.097 0 0 0-1.637 3.066c-.363.76-.545 1.238-.545 1.432 0 .119.038.216.113.291a.408.408 0 0 0 .296.112c.424 0 1.166-.418 2.227-1.254 1.076-.85 2.417-2.081 4.023-3.692 2.788-2.774 4.689-4.572 5.704-5.392 1.016-.836 1.75-1.254 2.205-1.254.03 0 .144.023.341.068a.978.978 0 0 0 .182.022c-1.197.627-3.129 2.327-5.796 5.102-.879.91-1.56 1.611-2.045 2.103-2.061 2.074-3.667 3.484-4.818 4.229-1.137.746-2.197 1.119-3.182 1.119-.879 0-1.568-.253-2.068-.761-.485-.522-.728-1.245-.728-2.17 0-1.208.993-3.498 2.978-6.87.333-.552.583-.977.75-1.275Z" />
  <path fill="#000"
    d="M259.205 135.392c2.045-2.327 3.818-4.05 5.318-5.169 1.5-1.134 2.765-1.701 3.795-1.701.909 0 1.614.329 2.114.985.515.641.773 1.536.773 2.685 0 .85-.228 1.746-.682 2.685-.455.925-1.371 2.26-2.75 4.006-.182.223-.409.499-.682.828-.636.76-.955 1.283-.955 1.566a.36.36 0 0 0 .137.291.558.558 0 0 0 .363.112c.379 0 1.031-.336 1.955-1.007.939-.686 2.061-1.649 3.364-2.887l.886-.85c4.606-4.416 7.288-6.624 8.045-6.624.046 0 .159.023.341.068a.987.987 0 0 0 .182.022c-1.136.582-3.454 2.611-6.954 6.086l-.591.605-.25.246c-3.728 3.714-6.379 5.571-7.955 5.571-.864 0-1.576-.343-2.136-1.029-.561-.686-.841-1.581-.841-2.685 0-.806.189-1.619.568-2.439.394-.821 1.152-1.917 2.273-3.289.348-.403.795-.925 1.341-1.567.939-1.074 1.409-1.708 1.409-1.902 0-.134-.038-.231-.114-.291-.061-.074-.174-.119-.341-.134-1.166 0-2.916 1.171-5.25 3.513-2.318 2.342-4.886 5.527-7.704 9.555l-6.137.313 3.637-5.258c1.166-1.686 2.015-2.976 2.545-3.871.53-.895.796-1.485.796-1.768 0-.149-.031-.261-.091-.336-.046-.074-.122-.119-.228-.134-.272 0-.841.425-1.704 1.275-.864.836-1.432 1.254-1.705 1.254a.285.285 0 0 1-.159-.045c-.045-.03-.068-.06-.068-.09 0-.149.068-.32.205-.514.151-.209.393-.478.727-.806 1.363-1.417 2.485-2.454 3.363-3.11.879-.657 1.591-.985 2.137-.985.56 0 1.015.269 1.363.806.364.537.546 1.245.546 2.125 0 .612-.076 1.246-.227 1.902a12.843 12.843 0 0 1-.659 1.992Z" />
  <path fill="#000"
    d="M283.568 123.89c0-.596.258-1.133.773-1.611.53-.477 1.121-.716 1.773-.716.56 0 1.007.164 1.341.493.348.328.522.76.522 1.297 0 .642-.242 1.201-.727 1.679a2.42 2.42 0 0 1-1.727.693c-.621 0-1.106-.156-1.455-.47-.333-.328-.5-.783-.5-1.365Zm-4.25 7.989-1.386 1.32c-.212.194-.485.455-.818.783-.652.642-1.046.962-1.182.962a.89.89 0 0 1-.318-.044c-.076-.045-.114-.105-.114-.179 0-.179.288-.515.864-1.007.409-.373.742-.679 1-.918l1.5-1.477.25-.246c.863-.85 1.553-1.588 2.068-2.215l4.841-.336-4.705 8.481a82.3 82.3 0 0 0-1.636 3.066c-.364.76-.546 1.238-.546 1.432 0 .119.038.216.114.291a.405.405 0 0 0 .295.112c.425 0 1.167-.418 2.228-1.254 1.075-.85 2.416-2.081 4.022-3.692 2.788-2.774 4.69-4.572 5.705-5.392 1.015-.836 1.75-1.254 2.205-1.254.03 0 .143.023.34.068a.987.987 0 0 0 .182.022c-1.197.627-3.129 2.327-5.795 5.102-.879.91-1.561 1.611-2.046 2.103-2.06 2.074-3.666 3.484-4.818 4.229-1.136.746-2.197 1.119-3.182 1.119-.878 0-1.568-.253-2.068-.761-.485-.522-.727-1.245-.727-2.17 0-1.208.992-3.498 2.977-6.87.334-.552.584-.977.75-1.275Z" />
  <path fill="#000"
    d="M301.5 131.364c0-.537-.174-.977-.523-1.32-.333-.343-.765-.515-1.295-.515-.576 0-1.296.403-2.159 1.209-.864.805-1.917 2.051-3.159 3.737-1.288 1.745-2.228 3.17-2.819 4.273-.59 1.089-.886 1.962-.886 2.619 0 .313.068.544.205.693.151.149.394.224.727.224.682 0 1.507-.343 2.477-1.029.97-.687 1.985-1.641 3.046-2.865 1.348-1.551 2.416-2.961 3.204-4.229.788-1.283 1.182-2.215 1.182-2.797Zm.795-.313 1.114-2.193 4.546-.336-4.773 9.667a50.111 50.111 0 0 0-.955 1.969c-.242.537-.363.858-.363.962 0 .179.045.329.136.448a.532.532 0 0 0 .386.157c.44 0 2.038-1.351 4.796-4.051.697-.671 1.235-1.2 1.613-1.588 2.091-2.029 3.69-3.484 4.796-4.364 1.106-.88 1.886-1.32 2.341-1.32.03 0 .144.022.341.067a.977.977 0 0 0 .159.023c-1.076.566-2.985 2.207-5.727 4.922a151.6 151.6 0 0 1-1.819 1.768c-.318.328-.772.791-1.363 1.387-2.925 2.924-5.182 4.386-6.773 4.386-.833 0-1.508-.238-2.023-.716-.515-.492-.772-1.134-.772-1.924 0-.478.045-.925.136-1.343.106-.417.265-.843.477-1.275-1.197 1.715-2.409 3.013-3.636 3.893-1.212.88-2.394 1.32-3.546 1.32-1.212 0-2.197-.372-2.954-1.118-.758-.746-1.137-1.731-1.137-2.954 0-1.343.334-2.588 1-3.737.667-1.163 1.697-2.282 3.091-3.356 1.394-1.06 2.712-1.858 3.955-2.395 1.242-.552 2.379-.828 3.409-.828 1 0 1.795.217 2.386.649.606.418.993 1.045 1.159 1.88Z" />
  <path fill="#000"
    d="M318.795 135.392c2.046-2.327 3.819-4.05 5.319-5.169 1.5-1.134 2.765-1.701 3.795-1.701.909 0 1.614.329 2.114.985.515.641.772 1.536.772 2.685 0 .85-.227 1.746-.681 2.685-.455.925-1.372 2.26-2.75 4.006-.182.223-.409.499-.682.828-.637.76-.955 1.283-.955 1.566a.36.36 0 0 0 .137.291.558.558 0 0 0 .363.112c.379 0 1.031-.336 1.955-1.007.939-.686 2.06-1.649 3.363-2.887l.887-.85c4.606-4.416 7.288-6.624 8.045-6.624.046 0 .159.023.341.068a.987.987 0 0 0 .182.022c-1.136.582-3.455 2.611-6.955 6.086l-.59.605-.25.246c-3.728 3.714-6.379 5.571-7.955 5.571-.864 0-1.576-.343-2.136-1.029-.561-.686-.841-1.581-.841-2.685 0-.806.189-1.619.568-2.439.394-.821 1.151-1.917 2.273-3.289.348-.403.795-.925 1.341-1.567.939-1.074 1.409-1.708 1.409-1.902 0-.134-.038-.231-.114-.291-.061-.074-.174-.119-.341-.134-1.167 0-2.917 1.171-5.25 3.513-2.318 2.342-4.886 5.527-7.704 9.555l-6.137.313 3.637-5.258c1.166-1.686 2.015-2.976 2.545-3.871.53-.895.795-1.485.795-1.768 0-.149-.03-.261-.09-.336-.046-.074-.122-.119-.228-.134-.272 0-.841.425-1.704 1.275-.864.836-1.432 1.254-1.705 1.254a.285.285 0 0 1-.159-.045c-.045-.03-.068-.06-.068-.09 0-.149.068-.32.204-.514.152-.209.394-.478.728-.806 1.363-1.417 2.485-2.454 3.363-3.11.879-.657 1.591-.985 2.137-.985.56 0 1.015.269 1.363.806.364.537.546 1.245.546 2.125 0 .612-.076 1.246-.227 1.902a12.745 12.745 0 0 1-.66 1.992ZM24.066 187.867h8.225l5.139-17.615h3.298v-4.592l2.209 2.135v4.838h-3.921l-5.154 17.614h-6.866l-2.93-2.38Zm.835-22.207 2.096 1.981v2.611h3.128l-1.854 7.111-3.37-11.703ZM9.103 187.867h7.857l3.1-11.426 1.246 4.715-2.492 9.091h-6.498l-3.213-2.38Zm1.883-17.615h3.241v-4.592l1.628 1.72-2.873 10.136-1.996-7.264ZM0 165.66h13.222v3.486H9.598l3.412 12.087 4.388-15.573h6.37l4.56 15.603 3.1-12.117h-3.426v-3.486h11.721v3.486h-3.015l-5.167 17.615h-7.475l-4.034-14.128-3.823 14.128H8.75l-5.394-17.615H0v-3.486Zm0 4.592h2.52l.694 2.381h-.496L0 170.252Zm43.97 17.615h25.977v-9.475l2.209 2.365v9.49h-24.83l-3.356-2.38Zm19.366-12.992h6.611v-9.215l2.209 2.35v9.291H65.8l-2.464-2.426Zm-8.55-4.623h7.588v2.381h-5.366v1.167h-2.222v-3.548Zm0 8.431h5.153v-3.808l2.378 2.012v4.115h-5.309v1.168h-2.222v-3.487Zm-10.816 8.078v-3.486h3.907v-14.129H43.97v-3.486h24.958v8.14h-5.592v-4.654h-9.57v5.729h5.168v2.703h-5.167v5.697h9.57v-4.883h5.591v8.369H43.97Zm0-16.509h2.93v2.381l-2.93-2.381Zm29.842 17.615H93.42c1.378 0 2.411-.061 3.1-.184.699-.123 1.307-.328 1.827-.614.962-.512 1.717-1.265 2.265-2.258.556-.993.835-2.094.835-3.302 0-1.3-.297-2.437-.892-3.409-.585-.973-1.42-1.705-2.506-2.196.925-.553 1.633-1.265 2.124-2.135.5-.88.75-1.853.75-2.918 0-.778-.137-1.525-.41-2.242-.274-.717-.69-1.418-1.246-2.104l2.18 2.273c.481.502.826 1.024 1.033 1.566.217.533.326 1.152.326 1.859 0 .911-.189 1.771-.566 2.58-.368.798-.944 1.581-1.727 2.349l1.458 1.413a5.076 5.076 0 0 1 1.16 1.828c.265.696.397 1.454.397 2.273 0 1.279-.335 2.513-1.005 3.701-.67 1.177-1.553 2.093-2.648 2.749-.726.419-1.642.716-2.746.89-1.104.174-2.864.261-5.28.261H77.153l-3.34-2.38Zm10.618-5.697v-3.394h5.478c.86 0 1.52.148 1.982.445.472.297.708.711.708 1.244 0 .102-.01.2-.028.292a1.865 1.865 0 0 1-.114.338h-5.86v1.075H84.43Zm5.252-4.5h-6.3v5.575h6.3c1.434 0 2.444-.205 3.03-.615.584-.42.877-1.105.877-2.058 0-1.013-.307-1.75-.92-2.211-.604-.461-1.6-.691-2.987-.691Zm-.623-8.524h-5.677v5.575h5.677c1.463 0 2.482-.205 3.058-.614.575-.42.863-1.106.863-2.058 0-1.014-.307-1.751-.92-2.211-.613-.461-1.614-.692-3.001-.692Zm-4.63 4.5v-3.394h4.87c.897 0 1.567.138 2.01.415.454.276.68.691.68 1.244 0 .143-.014.271-.042.384a.864.864 0 0 1-.1.276h-5.251v1.075H84.43Zm7.39-7.986c1.803 0 3.077.057 3.823.169.745.103 1.345.287 1.798.553a4.456 4.456 0 0 1 1.783 1.782c.415.757.623 1.633.623 2.626 0 1.28-.359 2.349-1.076 3.209-.717.85-1.708 1.383-2.973 1.598v.844c1.388.082 2.492.574 3.313 1.475.821.89 1.232 2.057 1.232 3.501 0 .911-.17 1.741-.51 2.488a4.576 4.576 0 0 1-1.43 1.812c-.49.379-1.109.65-1.854.814-.746.154-1.907.23-3.483.23H73.557v-3.516h4.02v-14.099h-4.02v-3.486H91.82Zm-18.233 4.592H76.6v2.519l-3.015-2.519Zm47.693 19.995-3.185-2.38h15.799c4.303 0 7.47-.947 9.499-2.841 2.038-1.904 3.058-4.858 3.058-8.861 0-2.253-.293-4.065-.878-5.437-.585-1.382-1.581-2.682-2.987-3.9 2.142 1.269 3.709 2.764 4.7 4.484.991 1.72 1.486 3.808 1.486 6.266 0 4.105-1.213 7.243-3.638 9.414-2.416 2.17-5.903 3.255-10.462 3.255h-13.392Zm9.924-8.077h-2.237v-11.918h4.12c1.236 0 2.18.2 2.831.599.661.389 1.038.983 1.133 1.782h-5.847v9.537Zm-3.228 1.105h4.927c2.104 0 3.6-.542 4.487-1.628.897-1.085 1.345-2.892 1.345-5.421 0-2.498-.434-4.3-1.302-5.406-.868-1.116-2.289-1.674-4.261-1.674h-5.196v14.129Zm-6.837-10.642-3.044-2.381h3.044v2.381Zm-3.044 14.128v-3.486h4.02v-14.129h-4.02v-3.486h15.077c4.284 0 7.404.85 9.357 2.55 1.954 1.689 2.931 4.371 2.931 8.047 0 3.686-.968 6.358-2.903 8.016-1.925 1.659-5.053 2.488-9.385 2.488h-15.077Zm31.824 1.106h25.977v-9.475l2.209 2.365v9.49h-24.831l-3.355-2.38Zm19.366-12.992h6.611v-9.215l2.209 2.35v9.291h-6.357l-2.463-2.426Zm-8.551-4.623h7.588v2.381h-5.365v1.167h-2.223v-3.548Zm0 8.431h5.153v-3.808l2.379 2.012v4.115h-5.309v1.168h-2.223v-3.487Zm-10.815 8.078v-3.486h3.907v-14.129h-3.907v-3.486h24.958v8.14h-5.592v-4.654h-9.57v5.729h5.167v2.703h-5.167v5.697h9.57v-4.883h5.592v8.369h-24.958Zm0-16.509h2.93v2.381l-2.93-2.381Zm40.403 17.615h8.862l6.469-17.615h4.233v-4.592l2.208 2.458v4.515h-4.898l-6.469 17.614h-7.248l-3.157-2.38Zm6.427-17.615h1.769l-.523 1.382-1.246-1.382Zm-6.173 0h2.903v-4.592l2.208 2.166v4.807h-1.685l1.855 4.853-1.246 3.363-4.035-10.597Zm-11.098 0h2.987l.892 2.381h-1.105l-2.774-2.381Zm10.405 16.509-6.753-17.615h-3.652v-3.486h12.981v3.486h-3.411l5.648 14.728 5.309-14.728h-3.256v-3.486h12.118v3.486h-3.907l-6.442 17.615h-8.635Zm23.202 1.106h25.978v-9.475l2.208 2.365v9.49h-24.831l-3.355-2.38Zm19.367-12.992h6.611v-9.215l2.208 2.35v9.291h-6.356l-2.463-2.426Zm-8.551-4.623h7.588v2.381h-5.365v1.167H223.9v-3.548Zm0 8.431h5.153v-3.808l2.378 2.012v4.115h-5.308v1.168H223.9v-3.487Zm-10.816 8.078v-3.486h3.908v-14.129h-3.908v-3.486h24.958v8.14h-5.591v-4.654h-9.57v5.729h5.167v2.703h-5.167v5.697h9.57v-4.883h5.591v8.369h-24.958Zm0-16.509h2.931v2.381l-2.931-2.381Zm29.588 17.615h24.037v-12.624l2.195 2.15v12.854h-22.962l-3.27-2.38Zm10.872-5.697v-11.918h4.02v-4.592l2.209 2.227v4.746h-3.992v9.537h-2.237Zm-7.829-9.537-3.043-2.381h3.043v2.381Zm-3.043 14.128v-3.486h4.02v-14.129h-4.02v-3.486h13.887v3.486h-4.006v14.129h7.574v-8.032h5.563v11.518h-23.018Zm50.312-20.225c2.237 1.679 3.803 3.343 4.7 4.991.906 1.648 1.359 3.696 1.359 6.143 0 1.976-.307 3.773-.92 5.39a11.77 11.77 0 0 1-2.704 4.208c-1.133 1.126-2.624 2.027-4.474 2.703a16.28 16.28 0 0 1-5.733 1.029c-1.859 0-3.657-.328-5.394-.983-1.736-.645-3.463-1.638-5.181-2.979a17.89 17.89 0 0 0 3.879 1.167c1.359.256 2.878.384 4.558.384 4.681 0 8.126-.998 10.335-2.995 2.208-2.006 3.312-5.129 3.312-9.368 0-2.252-.292-4.121-.877-5.605-.576-1.485-1.529-2.846-2.86-4.085Zm-11.396 16.601c-1.227-.276-2.124-.962-2.69-2.058-.566-1.095-.849-2.703-.849-4.822 0-2.437.396-4.208 1.189-5.314.793-1.116 2.048-1.674 3.766-1.674 1.264 0 2.246.272 2.944.814.699.543 1.237 1.439 1.614 2.688a13.29 13.29 0 0 0-2.095-.799c-.623-.184-1.189-.276-1.699-.276-1.227 0-2.1.368-2.619 1.106-.519.737-.779 2.001-.779 3.793 0 1.239.1 2.385.298 3.44.198 1.054.505 2.088.92 3.102Zm-4.544-6.88c0 2.826.467 4.868 1.401 6.128.944 1.259 2.463 1.888 4.559 1.888 2.104 0 3.624-.629 4.558-1.888.944-1.26 1.416-3.302 1.416-6.128s-.472-4.873-1.416-6.143c-.944-1.27-2.463-1.904-4.558-1.904-2.086 0-3.601.634-4.545 1.904-.943 1.27-1.415 3.317-1.415 6.143Zm-6.739 0c0-3.962.996-6.829 2.987-8.6 2.001-1.771 5.238-2.657 9.712-2.657 4.464 0 7.696.891 9.697 2.672 2.001 1.771 3.001 4.633 3.001 8.585 0 3.942-1 6.798-3.001 8.569-1.992 1.772-5.224 2.657-9.697 2.657-4.483 0-7.72-.88-9.712-2.641-1.991-1.772-2.987-4.633-2.987-8.585Zm40.884 3.363h7.885c1.954 0 3.356-.118 4.205-.353a6.347 6.347 0 0 0 2.322-1.183 6.522 6.522 0 0 0 1.854-2.441c.425-.973.637-2.048.637-3.225 0-1.239-.203-2.34-.609-3.302-.396-.973-1.014-1.843-1.854-2.611l2.492 2.426a6.145 6.145 0 0 1 1.415 2.181c.33.85.496 1.777.496 2.78 0 1.351-.274 2.59-.821 3.716a7.12 7.12 0 0 1-2.308 2.765 8.581 8.581 0 0 1-2.973 1.382c-1.095.276-2.666.415-4.714.415h-8.027v-2.55Zm5.068-10.474h-6.115v5.852h6.115c1.473 0 2.492-.226 3.058-.676.576-.451.864-1.198.864-2.242 0-.993-.326-1.731-.977-2.212-.642-.481-1.623-.722-2.945-.722Zm-5.068 4.746v-3.64h5.182c.858 0 1.524.159 1.996.476.472.318.707.768.707 1.352 0 .133-.042.317-.127.553a2.08 2.08 0 0 0-.042.122l-5.521.016v1.121h-2.195Zm-10.844 12.869v-3.486h4.021v-14.129h-4.021v-3.486h16.436c1.935 0 3.417.052 4.445.154 1.029.102 1.808.271 2.336.507 1.114.501 1.958 1.249 2.534 2.242.576.983.864 2.186.864 3.609 0 1.075-.198 2.058-.595 2.948-.387.881-.934 1.598-1.642 2.151a5.647 5.647 0 0 1-2.024.967c-.755.184-1.888.276-3.398.276h-9.159v4.761h3.978v3.486h-13.775Zm.029-16.509h3.015v2.519l-3.015-2.519Zm0 17.615h14.751v-4.592l2.208 1.659v5.313h-13.944l-3.015-2.38Zm31.087 0h25.978v-9.475l2.208 2.365v9.49h-24.83l-3.356-2.38Zm19.367-12.992h6.611v-9.215l2.208 2.35v9.291h-6.356l-2.463-2.426Zm-8.551-4.623h7.588v2.381H344.5v1.167h-2.223v-3.548Zm0 8.431h5.153v-3.808l2.378 2.012v4.115H344.5v1.168h-2.223v-3.487Zm-10.816 8.078v-3.486h3.908v-14.129h-3.908v-3.486h24.958v8.14h-5.591v-4.654h-9.57v5.729h5.167v2.703h-5.167v5.697h9.57v-4.883h5.591v8.369h-24.958Zm0-16.509h2.931v2.381l-2.931-2.381Zm54.347 8.585a1.591 1.591 0 0 0-.311-.568 3.412 3.412 0 0 0-.566-.538c1.425-.358 2.543-1.08 3.355-2.165.821-1.096 1.231-2.416 1.231-3.962 0-1.096-.184-2.048-.552-2.857-.368-.819-.948-1.566-1.741-2.242l2.761 2.611c.5.491.882 1.08 1.146 1.766.274.676.411 1.418.411 2.227 0 1.382-.382 2.6-1.147 3.655-.755 1.054-1.916 1.965-3.482 2.733l1.132 1.106.043.046c.538.492.887.998 1.047 1.521h-1.713a.708.708 0 0 1-.467-.154c-.123-.102-.217-.261-.283-.476l-.864-2.703Zm-14.963-3.993h7.05c1.463 0 2.468-.22 3.015-.66.557-.441.836-1.178.836-2.212 0-.972-.312-1.684-.935-2.134-.613-.461-1.585-.692-2.916-.692h-7.05v5.698Zm1.019-1.106v-3.486h6.144c.868 0 1.534.149 1.996.446.463.296.694.721.694 1.274 0 .133-.009.251-.028.353a1.252 1.252 0 0 1-.114.308h-6.469v1.105h-2.223Zm-10.815 13.023v-3.486h4.02v-14.129h-4.02v-3.486h17.214c2.473 0 4.19.072 5.153.215.963.133 1.741.364 2.336.691a5.038 5.038 0 0 1 1.996 2.028c.462.849.694 1.832.694 2.948 0 1.69-.534 3.046-1.6 4.07-1.057 1.014-2.492 1.531-4.304 1.551l-.014.86h.85c.292 0 .552.082.778.246.227.164.392.394.496.691l1.104 3.21c.132.368.33.645.594.829.265.184.595.276.991.276h2.435v3.486h-6.285c-.736 0-1.336-.148-1.798-.445-.463-.307-.831-.788-1.104-1.444l-2.025-4.899c-.349-.829-.755-1.433-1.217-1.812-.463-.389-1.024-.583-1.685-.583h-4.813v5.697h3.978v3.486h-13.774Zm.028-16.509h3.015v2.519l-3.015-2.519Zm29.715 17.615v-4.592l2.208 1.981v4.991h-5.946c-.764 0-1.448-.097-2.052-.291a4.444 4.444 0 0 1-1.572-.891l-1.968-1.735c.302.184.595.317.878.399.293.092.618.138.977.138h7.475Zm-17.314-6.711v1.014h-1.614v-3.456h3.653c.453 0 .811.092 1.076.277.264.184.495.511.693.982l.496 1.183h-4.304Zm-12.401 6.711h14.751v-4.592l2.209 1.659v5.313h-13.945l-3.015-2.38Z" />
</svg>