<svg xmlns="http://www.w3.org/2000/svg" width="260" height="30" fill="none">
  <path fill="#000"
    d="M254.082 15.446c-.488.112-.964.203-1.427.275-2.698.42-4.994.203-7.315-.112-1.775-.24-3.564-.54-5.563-.661-.563-.034-1.135-.066-1.715-.096-2.312-.12-4.752-.206-7.261-.266a384.353 384.353 0 0 0-7.24-.1 493.958 493.958 0 0 0-7.215.019l-3.963.038c-1.34.013-2.664.024-3.963.033a693.29 693.29 0 0 1-5.784.014 1927.772 1927.772 0 0 1-10.066-.056c-1.338-.01-2.689-.028-4.009-.047-1.326-.019-2.64-.039-3.941-.052-1.305-.014-2.597-.02-3.873-.015a145.85 145.85 0 0 0-3.832.065c-.418.013-.673-.119-.862-.112-.792.03-1.816.11-2.854.215-1.313.13-2.554.293-3.543.403l-.115.013c-1.611.183-3.671.434-5.793.698-1.992.247-4.03.505-5.776.714-.9.108-1.722.203-2.421.276-1.31.135-2.644.307-3.38.18a1.402 1.402 0 0 1-.281-.074c-.547.064-.798.415-.937.453h-.005c-.449.12-1.636.084-1.888.138-.038.008.231.192-.397.222-.056.003-.029-.155-.549-.075-.095.014-.957.267-1.634.452-.289.079-.545.145-.693.173-1.078.208-3.156.488-5.009.769-.967.146-1.873.291-2.544.418-.298.055-.453.175-.767.236-.162.031-.423-.017-.473-.007-.218.044-1.096.66-.916-.256-.997.25-.646.474-.632.66a4.552 4.552 0 0 1-.324.06c-.49.079-1.017.096-1.322.097-.484.007-.771.023-.951.27a41.333 41.333 0 0 1-1.271.076l-.899.04a32.66 32.66 0 0 0-.751.04c-.251.018-.372.027-.612.054a245.03 245.03 0 0 1-6.979.732 303.25 303.25 0 0 1-6.125.492l.011.211a6.768 6.768 0 0 0-.834-.024c-1.063.037-1.566.326-2.359.05-.578.131-1.155.261-1.733.39a2225 2225 0 0 1-2.831.135c-2.308.108-4.609.214-6.903.32-2.296.105-4.585.211-6.866.32-2.286.11-4.558.223-6.829.343a99.571 99.571 0 0 0-4.027.299c-1.347.126-2.695.278-4.047.45-1.353.173-2.708.367-4.066.577-1.36.21-2.723.436-4.09.674-1.209.211-2.42.43-3.636.656-.191.035-.34.047-.486.053-.307.012-.603-.003-1.271.124-.798.151-1.806.441-2.868.701a17.92 17.92 0 0 1-1.509.288l-.252.034c-.285.035-.592.066-.913.09a21.679 21.679 0 0 1-1.828.058c-.286-.001-.63-.008-.89-.018-.571-.027-1.122-.045-1.608-.047-.31 0-.53.1-.564.1-.204 0-.217-.15-.415-.15-.237 0-.524.118-.801.12-.651.002-1.34.036-1.796.064-.272.016-.46.029-.51.03-.636.014-.785-.125-.837-.124-.711.018-.438.137-.615.139-.92.009-1.592-.284-2.836.119l.079-.375c-.975-.003-.312.28-.506.352a.219.219 0 0 1-.033.006c-.282.031-2.148.137-2.302.145-.564.024-.593-.137-.642-.135-.12.003-1.524.307-2.268.23a1.755 1.755 0 0 1-.118-.016c-.457-.08-.185-.285-.037-.419.068-.061.11-.108.044-.12a.4.4 0 0 0-.055.002c-.203.016-.904.093-1.018.012-.145-.1.641-.168.625-.213-.011-.032-1.338-.143-1.102-.32.114-.106.818-.134 1.435-.161.4-.018.764-.036.909-.078.06-.017-.073-.199-.018-.21.213-.05 4.008-.36 4.432-.353h.032l-.031.016-.582.292.6-.024.241-.01-.237.06c-.314.078-.627.157-.941.237.23.24.595.286.974.23.684-.101 1.412-.534 1.445-.768.022-.169-1.097-.525-.097-.84l-.472-.098c-.315.091-.628.183-.942.276l.645.088-.224.166a236.823 236.823 0 0 0-1.768.369c-.309-.014-.256-.166-.47-.178-2.66-.147-.906.17-2.636.249l-.761-.173c.038.105-.02.16-.148.196-.262.072-.82.06-1.435.211l.303-.347c-1.337.177-4.126-.095-3.332.418l-.943-.06-.006.002c-.25.12-.502.239-.753.358l-1.09.071-.02-.154.867-.084-.695-.41-.633.14c.91.063-.248.419-.515.654-.749.148-1.259-.077-1.514-.065-.089.004-.867.34-1.052.275-.045-.015-.055-.055-.012-.128a.768.768 0 0 1 .084-.11l-.092.016c-.689.125-1.379.247-2.07.369l-.867-.048c.6-.296-1.22-.439.094-.65.978-.16 1.239.045 1.705.003.42-.039.628-.212 1.083-.26h.001c1.96-.208 3.683-.372 5.428-.516.982-.08 1.97-.155 3.01-.227.572-.04 1.082-.162 1.465-.186.432-.027-.09.214.455.118.21-.037.358-.084.469-.128.19-.076.27-.147.365-.158.095-.01.407.105.683.082 1.134-.099 2.781-.365 2.942-.376.076-.005.679-.028 1.366-.048.96-.03 2.082-.049 2.171-.04.082.008-.055.54.614-.058l.655-.067-.09.32c1.24-.45.863-.232 1.99-.298l.096-.006c1.5-.098 3.308-.144 5.201-.136a26.115 26.115 0 0 0 1.616-.044 22.866 22.866 0 0 0 2.428-.276c.261-.043.547-.096.787-.144.459-.092.902-.181 1.326-.269.724-.15.976-.326 1.834-.498.244-.049.615-.085.996-.123.865-.087 1.784-.182 1.405-.479 1.688.11 1.963-.549 2.732-.425.075.012.156.032.242.061l.288-.262c1.013.137 1.266-.173 2.313-.375.45-.085-.023.311.837-.18h.537l-.05.138-.038.11.053-.012c.954-.2 1.02-.172.866-.438.498-.018.996-.033 1.493-.046l.145-.307c-.077-.044-1.115.075-2.576.302-1.2.185-2.686.445-4.158.727-1.503.288-2.993.597-4.152.849-.968.21-1.705.38-2.026.46-.584.043-1.34.17-2.153.333a42.17 42.17 0 0 1-.773.148 31.037 31.037 0 0 1-1.58.244 23.6 23.6 0 0 1-1.6.142c-.275.015-.564.023-.792.025-.284.003-.535.004-.742-.002-.593-.016-.855-.23-1.712-.24-.857-.009-1.94.223-2.398.248l-.463.022c-2.136.076-7.955.436-3.41-.116l-.447-.288c-.921.228-1.25.293-1.514.302-.296.011-.51-.045-1.375 0-.692.036-2.314.405-2.263-.077 1.221-.188 2.531-.154 3.617-.223l.148-.01c.11-.01 1.415-.316 2.098-.296.615.019.218.494 1.521-.086.78.345 1.282.145 1.592.007.093-.042.169-.077.228-.09.448-.101.507.143.957.156.49.016.823-.156.89-.159.45-.017 2.127-.06 3.273-.035.288.005.567.007.767.01.23.004.38.01.413.026a23.095 23.095 0 0 1-.47.149l.062.002c.492.013.677-.052.773-.117.091-.062.105-.127.232-.151a22.004 22.004 0 0 0 .598-.05 27.698 27.698 0 0 1-.223.178c.063-.006.12-.012.171-.019.585-.078.515-.143.757-.222.124-.043.333-.09.753-.164l.27-.048c.162-.028.33-.055.482-.077.815-.114 1.566-.116 1.642-.144.027-.01-.3-.082.087-.176.642-.155 1.764-.365 1.923-.209.313-.085.253-.255.294-.267a6.17 6.17 0 0 1 .231-.053 194.291 194.291 0 0 1 4.168-.835c1.33-.241 2.77-.451 4.184-.678l.357-.058c.175-.029.08.101.255.072.281-.049 1.707-.427 1.922-.466.359-.069 1.116-.14 1.645-.2.264-.03.47-.057.543-.083.032-.01-.456-.11.088-.222.603-.122.298.123.332.121 1.246-.067 2.014-.286 2.86-.39.095-.012.221-.005.361.005.26.018.566.049.815-.001.044-.009-.056-.146-.012-.157.58-.122 1.148.11 1.4.11.618.003.271-.173.303-.177.41-.032.97.008 1.602-.032l.097-.006a368.67 368.67 0 0 1 8.103-.404c.381-.016.84.103.898.1.18-.009.12-.17.642-.191 1.097-.043 2.115-.099 3.203-.149.218-.01.319.138.486.133.089-.003.209-.018.351-.038.759-.111 2.108-.4 2.157.017 1.088-.498 1.847-.16 2.742-.215.579-.036 1.248-.084 1.957-.137 1.886-.14 4.058-.322 5.599-.396.446-.02.665.09.913.079.071-.004.196-.013.356-.027.84-.072 2.647-.27 2.76-.264.264.015.156.59 1.456-.017.784-.107.712.13.876.127.689-.014 1.351-.206 1.786-.303.371-.083.577-.096.492.13 1.466-.278 2.391-.644 3.046-.276-.032-.212.649-.42 1.496-.44-.813.46-.685.683-2.77.848-.033.002.013-.16-.02-.157-.297.022-.907.166-1.413.21-.507.043-.237-.091-.439-.068-.163.018-.166.135-.349.182a.582.582 0 0 1-.083.015c-.869.092-1.634.205-2.129.254-.311.03-.672-.069-.914-.047-.848.077-2.551.305-3.749.402-.122.01-.238.018-.349.025-.248.016-.155-.138-.698-.11-.063.004-.282.174-.755.24-.472.066-.846.016-1.15.053-.253.03-.138.159-.66.203-.238.02-1.822.099-3.253.155-1.186.048-2.266.083-2.388.08-.387-.01-.58-.19-.814-.153-.041.007-.101.195-.243.216-.848.125-2.072.207-3.416.264-2.38.103-5.134.126-6.854.204h-.006a578.78 578.78 0 0 0-6.826.353c-1.405.08-2.76.19-4.164.328a138.043 138.043 0 0 0-5.222.616l-.283.133a139.64 139.64 0 0 1 1.674-.203l.04.257c.755-.073.633-.264.597-.385.285.02.57.042.854.065.165-.259 1.38-.307 2.352-.347.257-.01.498-.022.698-.038.623-.05 1.358-.215 1.684-.226.692-.025.685.164.74.164.062-.001.522-.102 1.039-.172.249-.033.509-.061.741-.07 1.063-.039 1.19.242 2.634-.066 1.104.038 2.275-.004 3.463-.069.827-.045 1.661-.102 2.487-.15-.371.282 1.422-.051 2.237-.086.689-.03 1.4-.059 2.126-.089 2.196-.089 4.54-.181 6.871-.284a536.268 536.268 0 0 0 7.172-.358c.651-.038 1.156.077 1.518.042.196-.019.266-.21.541-.208.049 0 .096.17.607.151.886-.03 2.673-.319 3.955-.417.557-.042 1.019-.047 1.271.027a237.01 237.01 0 0 0 5.635-.724c.265-.037.465-.06.737-.087.259-.024.531-.045.817-.064.287-.02.587-.038.901-.059.315-.02.643-.044.985-.074.341-.03.695-.068 1.061-.118.346-.047.783-.12 1.122-.191.599-.126 1.197-.249 1.793-.37l.353.147c.487-.34 2.099-.624 3.566-.853.703-.11 1.372-.208 1.869-.3 1.194-.22 2.533-.475 3.862-.72 1.673-.31 3.33-.606 4.656-.813.394-.062.743-.055 1.104-.081a4.38 4.38 0 0 0 .342-.037c.21-.033.453-.202.673-.235 1.403-.212 3.097-.412 4.756-.604 1.255-.145 2.49-.287 3.564-.43a777.613 777.613 0 0 1 8.043-1.021 83.607 83.607 0 0 1 3.799-.372 110.199 110.199 0 0 1 4.693-.251c1.007-.035 2.019-.06 3.033-.075 1.301-.021 2.608-.03 3.92-.032 1.314-.002 2.632.002 3.956.005 1.323.003 2.66.005 3.991 0a12943.533 12943.533 0 0 0 7.925-.035l3.963-.018a13222.563 13222.563 0 0 1 11.888-.045c2.419-.007 4.827.002 7.246.023a879.9 879.9 0 0 1 7.258.093c1.706.029 3.412.062 5.119.097.26.005.245.157.446.161.423.01 1.032.006 1.702-.002 1.214-.013 2.628-.04 3.495-.021 1.072.023 2.772.282 3.145.054-2.159-.234-4.387-.35-6.634-.436-1.714-.066-3.439-.114-5.151-.184-.282-.012-.314-.156-.349-.16-.64-.06-.239.145-1.168.14-.075 0-.303-.031-.599-.07-.917-.12-2.49-.32-2.237.03-.501-.142-3.231-.263-5.022-.29a24.98 24.98 0 0 0-1.432.004c-.283.016-.084.153-.14.16-.244.028-.353-.16-.571-.166-.583-.017-2.061.128-2.341.126-.508-.004-1.815-.102-2.767-.125a10.853 10.853 0 0 0-.674 0c-.785.034-.638.23-1.317.247-.535.014.048-.15-1.147-.2a13.875 13.875 0 0 0-.825.008c-.846.026-1.986.085-2.342.085-.47 0-.989-.102-1.621-.108h-.136a233.552 233.552 0 0 0-4.192.115c-.061.002-.209.155-.359.152-.31-.007-.217-.195-.451-.214-.133-.01-1.503-.008-2.787-.004-.973.003-1.896.007-2.193.006-.474-.001-.802.11-1.065.11-.206-.001-.228-.158-.438-.16-.025 0-.123.02-.267.046-.226.039-.566.09-.905.087-.522-.003-2.507-.132-2.736-.133-.136 0-.014.09-.321.106a1.979 1.979 0 0 1-.108.002c-.405-.003-.671-.148-.902-.15-.537-.007-1.138.114-1.705.111-.671-.002-1.05-.034-1.272-.071-.318-.054-.312-.117-.37-.12-.27-.018-.379.145-.468.148-.375.011-1.292.037-1.625.042-.414.006-.59-.15-1.03-.152a3.96 3.96 0 0 0-.466.044c-.344.045-.789.11-1.269.115-.837.011-1.751.029-2.659.05-.914.021-1.821.047-2.64.07-.487.013-.566-.126-.715-.125a4.87 4.87 0 0 0-.547.037c-.447.055-.722.154-.886.16-.792.03-1.895.027-2.982.044-1.089.015-2.155.052-2.877.122-.175.016-.522.063-.967.13-1.085.163-2.711.42-3.771.54-.172.02-.026-.111-.214-.07-.452.1-.381.32-.613.342-.112.01-.383-.084-.711-.055-.17.016-.334.032-.493.049-1.429.152-2.426.366-3.119.452a497.88 497.88 0 0 0-8.471 1.122c-1.943.274-3.873.56-5.775.858a327.08 327.08 0 0 0-7.476 1.256c-.762.138-1.674.445-2.844.538a22.09 22.09 0 0 0-.146-.187l-.081.227c-.362.08-.66.154-.931.221-.348.085-.727.159-1.063.206a9.92 9.92 0 0 1-1.025.091c-.145.006-.297.009-.457.01-.091 0-.321-.154-.516-.089-.076.026-.148.085-.205.2a6.37 6.37 0 0 0-.694-.086c-.364-.01-.169.138-.829.207a.07.07 0 0 0-.005 0c-.279.032-.499.051-.771.078-.688.07-1.372.107-2.054.175-.549-.077 1.645-.677 1.787-.698a.625.625 0 0 1 .201.013c.168.038.321.127.458.121a4.71 4.71 0 0 0 .356-.031c.337-.041.652-.102.845-.078.07.009.124.029.157.064.843-.232-.216-.083-.115-.257.277.02.563.04.856.059.302.018.612.035.932.046a.2.2 0 0 1 .029-.046c.128-.156.505-.226.986-.284.308-.036.711-.077 1.045-.12.79-.094 1.512-.157 1.363-.349.264.039.527.077.79.117.979-.744 1.691-.484 3.167-.585l-.351-.15c.015-.021.477-.153.754-.172.184-.012.286.024.125.174 1.243-.62 1.301.035 2.397-.634.689-.18.315.162 1.566-.053.511-.087 1.096-.253 1.682-.395.265-.064.53-.123.789-.168.191-.032.299.112.47.085.17-.027.229-.195.434-.232.425-.075.995-.054 1.26-.105.238-.046.558-.236 1.131-.345 1.875-.357 1.487-.126 1.699-.082a.33.33 0 0 0 .052.007c.352.02.56-.274 1.246-.344.069-.007-.084.179.137.14.178-.031.243-.218.833-.337a217.372 217.372 0 0 1 4.466-.68c.858-.123 2.793-.231 3.683-.348.343-.045.691-.232 1.056-.278l.088-.012c1.213-.153 3.094-.38 4.592-.559.355-.043.782-.073 1.232-.102 1.289-.083 2.728-.095 3.271-.348.213-.022.408-.038.587-.05 1.427-.089 1.821.087 1.949.08.391-.012.563-.181 1.057-.212a112.254 112.254 0 0 1 4.805-.178 197.16 197.16 0 0 1 3.94-.021c1.319.005 2.648.018 3.962.031a613.182 613.182 0 0 0 8.468.037 6601.146 6601.146 0 0 0 7.403-.02l3.962-.012 3.963-.013 3.963-.012c2.42-.006 4.835.002 7.257.021 2.421.02 4.842.05 7.265.088a1535.603 1535.603 0 0 1 9.24.174l.119-.21a127.71 127.71 0 0 1-2.083-.113c-1.12-.067-2.261-.139-3.284-.173-1.165-.038-2.625.009-3.987-.008-1.252-.015-2.422-.084-3.205-.325.666-.034 1.747.166 1.731-.082-1.189-.035-2.378-.068-3.566-.1l.102.345c-.77.012-1.549.002-2.328-.006a94.056 94.056 0 0 0-1.428-.006c-.216.001-.064.106-.252.105-.21-.001-.067-.106-.106-.107-.533-.005-.694.101-.759.1-.167-.006-.037-.107-.517-.139-.891-.058-1.53.21-1.319-.24l-.863-.003-.225.368c-.734-.208-1.306-.179-1.792-.123-.686.078-1.203.207-1.776-.196l-.97.316-.546-.368-.107.316a24.442 24.442 0 0 0-.564-.018c-1.318-.029-2.681.037-3.963.052a37.83 37.83 0 0 1-.734.003c-1.161-.009-1.439-.05-2.466-.043-.351.003-.595 0-.762-.007-.926-.04.454-.218-1.154-.41l.297.388-.944.142-.657-.316c-.697.392-1.217.276-1.505.179-.114-.038-.191-.074-.228-.074-.107.001-.474.33-1.624.052.477.45-.877.002-.986 0-.064-.001-.6.037-1.125.065-.317.017-.629.03-.831.029-.421-.003-1.319-.1-1.945-.095-.554.004-.498.157-.538.158-.629.012-.313-.088-.648-.108a2.115 2.115 0 0 0-.099-.004c-.493-.005-.877.124-.984.112-.053-.007.126-.148-.119-.163-.661-.039-1.852.08-2.605.071-.055 0-.114-.006-.174-.015-.23-.033-.49-.111-.725-.115-.455-.008-.668.15-.933.145-.091-.003-.677-.253-1.405-.218-.123.007-.454.414-.9 0a1.456 1.456 0 0 1-.186-.212l-.125.313c-1.998.212-2.815-.31-3.638-.081-.18.05-.359.136-.551.274-1.761-.049-.56-.366-.754-.407-.125-.026-.698.068-.761.066-.112-.006-.096-.101-.218-.097-1.624.061-1.547.162-1.648.26-.039.038-.103.076-.298.116-1.667.345-3.014-.175-.075-.146l-.007-.157c-.721.076-2.552.162-1.957-.14.237-.121 1.47-.207 2.313-.268.826-.06 1.278-.115.046-.216a2.225 2.225 0 0 0-.055-.004c-.531-.026-.824.158-1.786-.148-.647.017-.709.498-1.592.367l.463.47a6.115 6.115 0 0 1-.979.152c-.928.078-1.9.03-2.551.168-.303.062-1.31.982-1.149.163-.049.01-.116.021-.197.033-.771.108-2.83.25-3.234.367-.107.032-.197.469-1.8.525l-.351-.116c1.055-.25-.073-.222-.478-.385-.142-.057-.196-.138-.034-.264l.006-.004c.259.148 1.423.11 1.62.177.336.115-.58.434.612.227.672-.762-1.451-.18-1.202-.855-.46.149-.8.23-1.06.271-.608.097-.778-.024-1.029 0-1.53.152-2.48.347-3.927.47-.332.176 2.294.012 2.609-.085-1.125.617.918.367 1.744-.018l.271.39c-1.13.07-2.229.175-3.323.439l-.238-.127.715-.336c-.94-.004-.332.327-1.61.138l-.05.486a665.584 665.584 0 0 0-3.555.337c-.568.4-2.848.614-2.493.148-.918.107.242.155-.6.381l-.047.013c-.378.095-1.053.204-1.241.125.015-.32.722-.521 1.147-.75a.945.945 0 0 0 .245-.174 1.276 1.276 0 0 0-.267.022c-1.078.142-4.927.914-4.593.457-.413.01-.19.213-.91.39-.095.024-.194.047-.294.068-1.731.372-4.181.51-5.771 1.064-.27.094-.515.2-.727.32.288-.004.544-.016.777-.035 1.372-.112 1.928-.466 3.19-.692a98.797 98.797 0 0 1 2.568-.427c1.78-.27 3.657-.48 2.906-.108l.611-.254.698.267c-.6.11-1.2.22-1.8.332l-.489-.296-.158.291-.753.173.164-.346a368.795 368.795 0 0 0-1.182.135l.041.04.342.326-.281.05c-1.491.265-1.002.091-2.007.007-.766.101.564.15-1.034.491-1.766.381-.81-.176-2.78.213-.102.02-.212.043-.33.07l-.068.225c-.544.027-1.089.055-1.633.084l.258.219c-1.104.167-2.579.62-3.008.354 1.142-.052 1.019-.636.708-.689-.161-.027-.841.073-1.795.25-.279.051-.592.1-.916.14-.292.036-.599.067-.915.093-.297.024-.602.045-.911.064l-.904.057c-.3.02-.599.042-.896.07-.301.028-.593.062-.884.104-1.812.261-3.43.476-4.069.552-.992.119-1.88.178-2.737.25-1.061.09-2.074.2-3.183.462.615.052 1.894-.043 3.212-.17 1.678-.162 3.418-.38 3.943-.347.092.005.132.553.643-.128a27.529 27.529 0 0 0 2.238-.253c.287-.042.567-.078.867-.11.288-.031.583-.058.885-.083.295-.024.597-.047.904-.07.301-.021.607-.044.918-.07.213-.018.428-.038.645-.06-.057.165-.116.33-.177.495a4.652 4.652 0 0 0-.436-.032 5.717 5.717 0 0 0-.929.058c-.366.05-.675.122-.898.154-.29.041-.438.015-.383-.224a30.039 30.039 0 0 0-.834.065l.031.315c-.178.017-.346.036-.529.06l-.73.092-.04-.314c-.358.045-.716.09-1.075.133l-.074.327c-1.102-.079-4.711.893-3.164.095-.505.054-1.011.107-1.517.158l.029.23-.264.039-.386.057.194-.23c-.984.224-1.963-.055-2.596.245.437.014.874.026 1.31.038-.837-.02-2.345.321-2.482.333-.416.037-.649-.1-1.101-.07-.407.026-.342.141-.418.143-.731.019-1.133-.049-1.38-.115-.498-.135-.359-.266-1.007.298a86.926 86.926 0 0 1-.35-.29l-.417.294c-.65.04-1.3.076-1.949.112l.676.348c-.97.126-1.441-.108-1.536-.107-.267.002-.379.174-.461.18-.845.051-1.401.076-1.772.08-1.374.015-.226-.247-1.813-.643-.692.283.036.486.151.727-.946-.062-1.236.023-2.228.063-.259.01-.543-.109-.706-.102-.141.006-.574.171-.913.189-.38.02-.846.006-1.347.006-.242 0-.492.005-.744.018-.642.034-2.603.228-3.973.291-.585.027-.455-.098-.606-.091-.063.003-.512.166-.887.183-.209.01-.418.02-.627.028-2.262.095-4.56.146-6.839.232a53.427 53.427 0 0 0-4.219.309c-1.33.146-2.662.325-3.986.474a1.209 1.209 0 0 1-.222.01c-.15-.012-.051-.086-.204-.07-.068.007-.128.196-.839.212-.256.006.02-.157-.231-.132-.122.014-.153.177-.857.308-1.202.226-1.912.148-2.088.156a.18.18 0 0 0-.027.003c-.215.044-.132.165-.419.213-1.364.23-2.507.438-3.72.657l-.095.017c-.442.076-2.85.519-4.094.753-.4.074-.68.124-.735.128-.504.042-.096-.317-.728-.186l-.494.308.877-.006c-.794.06-1.65.355-2.226.463-.066.012-.469.042-.886.09a13.552 13.552 0 0 0-.768.108l.03-.012c.207-.084.42-.173.622-.263l-.263-.086a12.621 12.621 0 0 1-1.13.23 14.72 14.72 0 0 1-1.478.158 19.007 19.007 0 0 1-.742.03c-.336-.004-.233-.103-.617-.103h-.12c-2.078.004-1.557.414-3.663-.36.693.046 3.127-.085 3.662-.06.023 0 .042.001.057.003.124.009.425.16.673.247.293.1.51.114.28-.268.167-.007.312-.013.436-.016.466-.014.648.009.734.051.164.078-.026.226.752.125.128-.017.282-.043.467-.08-.055-.081-.11-.163-.163-.245l.371-.087c.26-.063.496-.118.707-.149.205-.03.394-.036.574-.007.055-.441 2.32-.647 3.605-.902l.084-.017c1.305-.274 2.728-.594 4.1-.868.551-.11 1.095-.214 1.619-.304.629-.109 1.012.002 1.09-.01.116-.02.418-.217.649-.253.203-.032.507-.065.86-.102 1.143-.122 2.8-.27 3.261-.643-1.097.139-2.194.29-3.289.453-1.41.209-2.817.435-4.222.675-1.405.24-2.809.493-4.21.755-1.216.227-2.43.461-3.644.7.187.02-.065.11-.534.235a16.11 16.11 0 0 1-2.11.385 17.65 17.65 0 0 1-1.431.108 17.309 17.309 0 0 1-.82.01c-.246-.009-.039-.151-.112-.16-.546-.06-1.01.151-1.183.153-.132.002-.399-.092-.867-.081-.086.002-.108.104-.2.106-.611.013-1.215.027-1.828.049-.038 0-.198-.144-.353-.139-.155.006-.304.16-.343.162-.123.005-.27.004-.426.001-.466-.009-1.027-.037-1.376-.02-.162.008-.044.11-.226.119-.557.026-.385-.197-1.071-.104-.23.032-.206.194-.65.199-.313.003-.298-.289-.348-.296-.07-.01-1.136.29-1.503.125.425-.319.082-.261-.27-.115-.26.109-.524.267-.484.354-.432-.022-.865-.043-1.297-.063l-.426.195c-1.26-.075-2.155.03-3.196.122-.401.035-.824.07-1.299.092-.082.003-1.525.017-1.465-.064.845-.21 1.7-.294 2.27-.104a2.4 2.4 0 0 1 .467-.236c.482-.17.757.021 1.897-.123.487-.06.512-.187.568-.194.84-.096 1.905-.204 2.946-.266 1.308-.078 2.576-.08 3.3.084.355-.118-.94-.085-.441-.185.114-.023 1.343-.123 2.577-.17 1.706-.07 3.416-.036 2.198.234.219-.018.437-.034.656-.05.21-.402 1.305-.327 1.183.069l.308-.245c.204-.07.445-.108.784-.131.08-.005.186-.01.314-.013.19-.006.423-.011.694-.022a26.212 26.212 0 0 0 1.384-.091 21.638 21.638 0 0 0 2.06-.297c1.658-.314 3.336-.617 4.212-.784.33-.063.546-.107.605-.126l-.024-.28c-.213.032-.426.066-.638.101-1.41.236-2.797.527-4.209.816a20.912 20.912 0 0 1-1.352.23 15.994 15.994 0 0 1-1.363.12 15.216 15.216 0 0 1-1.369-.002c-.427-.02-.86-.041-1.3-.068.11.086.218.173.327.26-1.486-.111-2.979-.195-4.47-.257 1.473-.213 3.799-.396 5.443-.297l.283.018c.28.02.078.145.142.159.073.014.146-.016.252-.059.141-.057.338-.136.666-.172l.032-.003c.16-.016.387-.027.636-.039.216-.01.45-.021.67-.035.258-.015.498-.033.675-.05.15-.013.253-.025.285-.031.087-.019.216-.071.371-.139.323-.14.74-.332 1.056-.391.617-.116.233.112.357.09.515-.084.96-.246 1.363-.312.353-.057.946-.072 1.444-.168.346-.066.647-.172.79-.36a322.411 322.411 0 0 0-1.29.186c.151-.038.3-.072.448-.104 1.5-.322 2.848-.363 4.255-.62.555-.1 1.12-.236 1.709-.433.447-.549-1.441-.176.132-.636l-.872.163-.156.325a211.216 211.216 0 0 0-1.538.048l.473.185c-1.655.346-3.313.737-4.092.497a.964.964 0 0 1-.14-.055l-.047.356c-1.666.17-4.026 1.127-3.69.415l-.212.145a6.921 6.921 0 0 0-.12.009c-.659.047-.51.167-.621.26a.296.296 0 0 1-.12.052 4.788 4.788 0 0 1-.53.04 3.687 3.687 0 0 1-.659-.027c-.163-.029-.214-.078-.015-.156a1.49 1.49 0 0 1 .064-.024l-.066.002c-.266.006-.475.02-.642.04-.391.05-.548.148-.637.252-.11.128-.114.261-.342.277a3.095 3.095 0 0 0-.314-.058c-1.246-.168-3.032.204-2.183-.237a127.53 127.53 0 0 0-.554-.041c-.596.377-1.198-.018-1.857-.134h-.666a125.93 125.93 0 0 0-.429.386c-2.106-.489-1.364 1.078-2.384-.212l.43-.264 1.05-.168c-1.421.032-2.839.082-4.254.145a7.79 7.79 0 0 0-.173-.022c-1.713-.195-2.7.257-4.643.135l-.548.155c.156-.306.83-.336-.314-.354l-.153-.002c-.042-.065.02-.12.139-.16.254-.089.768-.11 1.06-.023.103.032-.73.269.223.192.649-.05-.552-.21 1.4-.275l-.228-.14.633-.046.592.32c.463-.21.715-.473 1.79-.505l.042-.001a.304.304 0 0 0-.041.016c-.082.04-.069.095.01.143.12.074.393.134.707.11l-.018-.262c1.324-.143.881.143 1.975-.123l.343.19c.584-.326 2.805-.62 2.416-.17.028-.02.056-.039.086-.056.638-.377 1.868-.23 2.342.08l.107-.264.785-.07.44.151.555-.165c.113.086.225.173.336.26.296-.108.591-.214.886-.32l.098.039c.139.057.258.113.385.168.003-.044.091-.08.228-.111.154-.035.37-.064.6-.089.2-.02.408-.038.597-.049.218-.012.41-.014.526.003l.074-.043c.093-.055.187-.11.28-.167.073.076.148.153.224.229l.103-.105.145-.149c.156.02.296.042.466.056l.255.02c.928-.617 1.035-.256 1.265-.304.428-.089 1.841-.631 2.09-.663.247-.033.393.096.594.073l.017-.002c3.282-.364 1.876-.517 2.519-.7.348-.099.624-.002.935-.072l.774-.182c.986-.235 2.486-.576 2.605-.58.232-.009-.2.74.514.453-.032-.363 1.612-.241.794-.628a227.103 227.103 0 0 1 1.988-.153c-.133-.414.716-.254 1.599-.39.298-.047.683-.117 1.098-.19 1.327-.236 2.956-.48 2.91-.138.292-.13.586-.259.88-.387.192-.005.383-.011.573-.02 1.468-.06 2.957-.22 4.405-.317.398-.027.797-.052 1.197-.071 1.845-.089 3.736-.167 5.642-.24 2.27-.087 4.561-.167 6.823-.251 2.001-.074 3.978-.15 5.897-.236.284-.012.252.133.456.125.13-.006.285-.015.459-.027 1.27-.084 3.579-.31 4.899-.38.482-.024.726.098.878.093.519-.016.383-.191.622-.204.072-.004.203-.006.374-.008.719-.007 2.13-.007 2.683-.04.339-.021.726-.202 1.126-.192.034 0-.015.157.014.157.722-.047.277-.138.521-.153.787-.05 1.596-.114 2.42-.186 1.002-.088 2.027-.188 3.059-.287.466-.044 1.188-.02 1.589-.059.153-.015-.134-.095.393-.15.181-.018.261.122.467.107.56-.044.86-.267 1.21-.351.215-.051.51-.06.832.054a53.404 53.404 0 0 1 1.193-.112c.302-.026.608-.05.906-.078.288-.026.569-.054.835-.085.271-.031.526-.067.761-.105.272-.045.449-.082.692-.135.252-.055.485-.104.689-.144.317-.062.489-.005.791-.065.215-.043.568-.249.904-.314.336-.065.892-.038 1.536-.161.678-.13 1.51-.359 1.663-.385.097-.018.175.014.253.043a.414.414 0 0 0 .232.035c.559-.106 2.03-.526 2.75-.665.773-.15 1.252-.149 1.516-.194.246-.043.51-.227.622-.247.174-.03.241.122.463.085.08-.014.161-.033.243-.054.287-.076.597-.189 1.018-.258 1.607-.266 3.209-.517 4.808-.756 1.955-.293 3.904-.568 5.847-.829 1.956-.262 3.906-.51 5.851-.747 1.955-.238 3.909-.465 5.852-.684a86.853 86.853 0 0 1 4.089-.36c.903-.06 1.804-.106 2.702-.14.511-.02.916-.06 1.367-.098a20.325 20.325 0 0 1 1.943-.078c.65.005.38.179.884.136.224-.019.165-.149.449-.16.251-.01.51-.014.768-.014 1.035.003 2.055.076 2.488.073.214-.002.459-.152.899-.154l.629-.002c1.273-.003 2.619.009 3.985.02 1.317.012 2.643.024 3.954.022a199.554 199.554 0 0 0 3.962-.035c1.277-.023 2.692-.052 3.963-.066.298-.003.588-.006.866-.007 1.021-.005 2.056-.008 3.097-.01 1.316-.002 2.642-.002 3.962 0 1.332 0 2.658.002 3.963.003 1.349.002 2.675.003 3.963.002a2350.258 2350.258 0 0 1 7.305.01c2.435.008 4.866.022 7.294.048 2.429.026 4.856.065 7.281.123 1.632.04 3.263.088 4.895.147-1.467-.164-3.143-.274-4.892-.352-2.408-.109-4.954-.158-7.28-.21a492.17 492.17 0 0 0-14.603-.156 2522.912 2522.912 0 0 0-7.926.044l-3.962.025a3255.703 3255.703 0 0 1-7.926.037 1245.834 1245.834 0 0 1-4.04.004c-1.215 0-2.513-.007-3.874-.017-1.291-.008-2.632-.02-3.987-.027a445.31 445.31 0 0 0-4.022-.006c-.926.003-1.841.01-2.734.022-.22.003-.672.132-1.148.139-.02 0-.082-.006-.174-.015-.383-.04-1.274-.135-1.617-.118.422.349-1.256.11-1.773.158-.183.016-.421.05-.704.093-.72.107-1.709.266-2.827.31-1.392.06-1.022-.121-1.102-.123-.076 0-.144.007-.205.017-.324.057-.468.244-.769.3-.7.132-2.812.386-5.052.655a649.07 649.07 0 0 0-6.123.752c-.547.074-.583-.069-.706-.052-.327.045-.771.253-1.294.326-.942.132-2.047.152-2.566.228-.294.043-.648.104-1.04.177-1.264.232-2.912.582-4.141.78-.453.073-.449-.082-.654-.05a24.82 24.82 0 0 0-1.051.208c-1.073.227-2.491.56-3.293.698-.834.144-1.681.272-2.532.406a55.221 55.221 0 0 0-3.013.542l-.39-.134-.515.316a70.4 70.4 0 0 0-1.918.36c-.251.05-.406.077-.656.113a17.26 17.26 0 0 1-.736.086c-.26.026-.533.048-.822.07l-.907.065c-.317.024-.647.05-.989.083-.329.032-.729.077-1.062.125-.689.099-1.374.19-2.054.269-.352.043-2.103.111-2.398.141-.242.026-.462.22-.825.233-.507.019-.066-.35-.88-.173-.219.047.01.162-.431.25a102.789 102.789 0 0 1-3.152.36c-.257.006-.512-.268-.578-.268-.347-.003-.313.22-.542.26-.675.12-1.578.041-1.689.053-.262.03-.568.067-.903.109-1.369.171-3.207.4-4.347.389-.196-.002-.183-.172-.218-.175-.223-.02-.348.18-.558.198-.467.039-1.046.058-1.645.07-.85.016-1.74.015-2.411.033-.131.004-.404.111-.639.115-1.329.021-.907-.15-.983-.152-.179-.007-.485.173-.96.208s-1.118.071-1.805.104c-1.088.053-2.287.099-3.095.129-.988.036-.982-.152-1.047-.152-.139 0-.517.166-1.167.213-1.15.083-1.128-.04-1.517-.037l-.112.003c-.044.002.038.142-.533.183-1.102.078-3.593.047-4.778.109-.455.023-.556.166-1.022.19-.11.006-.242.009-.386.01-.828.006-2.115-.02-2.23-.012-.039.003-.114.168-.338.183-.246.017-.493-.047-.676-.033-.346.027-.772.092-1.17.147-.8.11-1.488.176-1.192-.234-.32.171-.64.344-.957.518-.749.067-1.488.15-2.222.244-1.393.178-2.767.394-4.154.616-.06.01-.12.018-.178.024-.403.043-.763.015-1.113.074-.403.065-2.142.526-2.434.58-.127.024-.398.071-.74.132-1.074.188-2.848.518-3.13.56-.412.062-.829.056-1.164.058-.255.002-.463.008-.585.051-.228.08.013.17-.427.292-.761.21-2.109.299-2.343.347-.1.021.107.085-.83.277l-.024.005c-.278.055-.453.042-.605.035-.088-.005-.16-.01-.217 0-.037.005.014.11-.351.2a2.89 2.89 0 0 1-.583.074 2.261 2.261 0 0 1-.59-.052c-.102-.024-.16-.045-.185-.044-.066.003-.194.087-.4.136-.083.02-.181.033-.288.033-.09 0-.19-.002-.31-.007-1.083-.042-2.764-.154-3.664-.138-.195.003-.124.183-.903.192-.556.008-.465-.141-.673-.14-.098.002-.21.02-.338.046-.303.062-.693.165-1.204.186-.466.017-2.45.07-4.325.15-1.816.075-3.532.164-3.705.154-.236-.012-.507.009-.63-.06l.279-.253c1.05.18.61-.09.882-.131.394-.062 1.893-.14 2.251-.233.128-.034-.18-.174.509-.308.128-.025.245-.037.352-.043.509-.027.788.095 1.013-.246 1.09.367 2.086-.155.844-.206-.203-.007-.93.01-1.885.047a219.972 219.972 0 0 0-6.888.394c-.995.072-2.754.332-4.075.455-.143.013-.282.025-.414.035-.791.058-2.728.221-2.665.004-.699.04.058.178-.086.22-.218.066-1.436.116-2.237.152-.3.014-.542.026-.653.037-1.442.15-3.107.417-4.683.51-.629.038-1.221.041-1.762-.005.084-.06.167-.122.25-.183.218-.067.87-.092 1.486-.152.555-.054 1.06-.13 1.157-.264-.388.031-.779.062-1.17.091-1.368.103-2.656.17-4.025.22a139.13 139.13 0 0 1-3.528.079c.014.058-.212.104-.56.137-1.018.1-3.097.068-3.228-.012l.197-.332c1.945.405 1.905-.061 3.028.115.078.011.16.026.25.045.563-.002.391-.184.667-.222 2.74-.394.054.382 2.15.17-.453-.177.279-.298 1.01-.381.299-.034.599-.061.819-.08.19-.01 2.408-.063 2.69-.095.155-.013.322-.03.5-.047 1.595-.159 3.87-.46 5.294-.46l.035-.003c1.21-.097 1.871-.346 2.98-.495.852-.115.62.041 1.022.005.683-.063.971-.355 1.37-.197.096.038.198.102.313.2l1.709-.374.025.263c.362-.035.725-.069 1.088-.102l.297-.292c1.166.014.703.269.942.497l.754-.017.352-.413.179-.209a341.18 341.18 0 0 1 3.375-.234l.24.245-.014-.263a200.432 200.432 0 0 1 5.772-.427c.508-.171-2.601-.106-2.833-.093-.313.01-.748.038-1.229.074-1.526.11-3.5.298-3.522.062-.396.152-1.21.264-2.015.313-.782.047-1.554.034-1.932-.07a529.03 529.03 0 0 1 3.397-.25l-.137-.304c1.453.302 1.655.261 3.091-.248l.035.42c.298-.17.677-.225 1.061-.235.888-.024 1.803.196 1.813-.226.552.015 1.105.032 1.658.051.986-.11-.142-.39 2.133-.498.465-.02 1.075-.031 1.876-.023.326.003.26.158.752.136.135-.005.973-.254 2.511-.24.239.004.257.137.503.153l.071.004c.186.006.324-.023.496-.044.272-.036.466-.044.273.228.08.003.153.004.22.004.206-.001.36-.014.477-.033.445-.076.342-.222.436-.353a.353.353 0 0 1 .145-.11c.184-.086.244-.015.33.024.049.022.107.033.204-.006.13-.055.15-.127.266-.206.181-.107.526-.23 1.625-.376l-.639.178.366.141c1.07-.377 1.014-.117 1.46-.601.5.01.952-.027 1.47-.11.346-.055.72-.13 1.16-.224 2.029-.426 1.074-.645 3.16-.555l.366.019c.387-.146.775-.292 1.165-.436.689.058.187.35 1.181.235-.84-.287 1.272-.466 1.576-.88l.046.075.104.17c.223-.034.445-.066.668-.098l-.028-.21.914.031.644-.3c.389.097.777.195 1.165.295.233-.02.467-.038.7-.057l-.259-.285a167.802 167.802 0 0 1 .91-.004c-.368-.13-.174-.358.764-.458.774-.08-.06.368 1.59.047.112-.02.283-.287 1.744-.465l.133-.015c1.903-.201.991.06 1.331.04.067-.004.638-.176 1.2-.229.316-.03.624.056.665.053.192-.015.241-.165.505-.185.224-.016.472-.023.726-.026.485-.005 1 .002 1.414-.022.282-.016.544-.115.67-.122.195-.01.45.113.647.103.73-.035 1.815-.527 2.18.072.536-.473 1.59-.181 1.937-.228.09-.013.134-.048.108-.125 1.877.062 6.807-.64 6.691.001l.011-.006c1.011-.588.939-.192 1.377-.223.491-.034.231-.127.621-.142.912-.037 1.783-.04 2.688-.088l-.412.285c.952-.026.613-.21 1.579-.305.427-.043.708-.063.893-.067.583-.012.207.147.417.308-.083-.215 2.012-.314 2.226-.3.128.009-.409.33.865.152a49.685 49.685 0 0 1-.227-.248c.591.081 2.161-.184 2.43-.176.098.004.565.416 1.033.286a.768.768 0 0 0 .362-.23l.238.244c.661-.158 1.319-.318 1.976-.48l.36.445.634-.056-.457-.381c1.311-.05 2.877-.424 3.191.02a95.798 95.798 0 0 0 .809-.346l.592.413c1.283-.175 1.295-.283 2.151-.548l-.061.378c.626-.244 1.771-.54 2.709-.68.216-.032.515-.032.777-.027.339-.004.734-.003.789-.015.045-.01.215-.098.425-.19.386-.171.878-.354 1.069-.162a.288.288 0 0 1 .075.133 11.2 11.2 0 0 1 .839-.142c.32-.04.553-.05.743-.049.261.002.439.027.588.029a.856.856 0 0 0 .148-.01c.133-.022.123-.074.271-.146.121-.052.256-.103.436-.144.669-.152 1.367-.218 1.759-.302.225-.048.242-.188.396-.222.731-.158.328.057 1.097-.095.071-.015.605-.28 1.243-.375.21-.03.626-.038.949-.041.226-.002.407-.002.44-.009.359-.066.008-.38 1.31-.174l-.143-.19c1.49-.438 1.783-.167 2.093-.198.039-.005.389-.187.614-.207.378-.034.556.104.64.098.167-.013.549-.093.97-.15.325-.044.673-.074.964-.05-.211-.445 2.016-.967 2.596-.515l1.147-.494.579.179.29-.31a553.532 553.532 0 0 1 1.824.316l.028-.59.496-.005.446.4c.199-.057.398-.116.596-.174l.104-.351c1.073-.281.66.845 2.608-.366l.073.01c.311.038.621.078.932.117.308-.472 1.026-.309 1.571-.43.384-.086.341-.25.87-.325.53-.074.532.09.573.085.433-.047.74-.231 1.061-.244.048-.002.192.173.597.132a1.29 1.29 0 0 0 .283-.062c.258-.085.494-.222.946-.251.31-.02.419.13.694.109 1.308-.096 2.523-1.075 3.614-.23.073-.052.314-.165.625-.292.581-.232 1.456-.503 1.947-.535 1.163-.073.729.162 1.188.155.059 0 .349-.08 1.12-.141l.241-.017c.17-.01.123-.115.147-.118.937-.07 2.61-.105 3.827-.122l.627-.012c.107-.002.661-.324 1.616.057.505-.121 1.175-.12 1.907-.088 1.284.056 2.753.206 3.899-.08.057-.001.117.003.177.01.201.025.4.089.485.086.946-.03.608-.359 2.728.13-.151-.148.22-.28.79-.297.075-.002.152-.003.233 0 1.046.024.302.33 1.141.31l.001-.263c1.207.154 1.796.062 2.556-.028.452-.053.96-.105 1.684-.106.701 0 1.736.194 1.903.194.029 0 .194-.041.375-.087.231-.059.488-.125.529-.126.412-.006.645.09 1.001.091 1.175.002 2.578-.272 2.324.227l.109-.036.861-.28c1.221.532 2.134-.202 2.39.316l.655-.32h.057l3.962.04 3.963.041 3.963.041c1.262.013 2.534.03 3.805.05.212-.167 2.514-.091 2.632-.063.511.115.027.44.901.415.052-.002.109-.004.17-.008l.372-.474c1.389-.037.72.114 1.266.228.229-.017.157-.141.467-.147 1.196-.021 3.282-.007 5.045.012l1.907.02c.369.004.311.119.426.12.315.005.94-.13 1.572-.12 1.035.017 2.183.042 3.384.074a611.854 611.854 0 0 1 9.949.344c.265.012.296.15.475.16.248.012.804-.092 1.065-.078.246.014.402.12.664.136.692.04 1.519.005 2.342.028.609.016 1.216.065 1.761.2.108.027 1.451.59 1.481.626.178.216-1.022.549.943.875-1.759.265-1.213.757 1.072 1.003a755.8 755.8 0 0 1-3.443.166l-.006.173c1.043.294 2.08.395 3.669.426l-.149.16c-1.405.263-3.1.302-4.173.657 1.568.282 3.136.56 4.707.833l-.236.126c-.753.108-2.399.164-3.026.262-2.394.373 2.091.304 1.353.536a846.99 846.99 0 0 1-7.576-.095c-.038.072 1.62.22 3.563.399 2.728.253 6.02.554 5.961.861-.795.034-1.59.067-2.385.098l1.061.407-.293.126a838.7 838.7 0 0 1-4.029.284c4.082-.068 5.977.004 6.957 1.06l-.333.081c-.845-.627-4.683-.477-6.963-.37l-.321.015c.072.032.183.055.32.072.718.09 2.152.012 2.499.112.117.034-.292.165-.021.236.707.185 3.732.425 3.292.642-.26.13-4.362.283-5.782.283-.132 0-.241 0-.321-.003l.321.038c2.121.245 4.302.34 6.432.634-1.413.426-2.668.946-5.244.95-.79.221 4.668.565 4.797.683-.946.13-1.893.257-2.84.383.801-.03 1.601-.062 2.402-.095l.007.132c-1.849.176-3.559.483-5.585.513-.248.003-.501.003-.759-.003.034.108.355.164.757.194.47.035 1.053.034 1.424.038ZM29.329 17.054c-.051-.151.491-.21.955-.248l.311-.025-.225-.085c1.022-.056 2.94-.164 2.977-.543.729-.116.435.239.676.253.086.005.896-.233 1.644-.147.062.007.123.017.183.029l.55-.055.071-.377.81.372-1.6.168c-1.806.19-3.6.38-5.383.56l-.965.098h-.004Zm27.074-2.134c.5.027 1.117.067 1.581.064.358-.003.573-.068.461-.237-.165.01-.27.018-.46.025-.412.011-.827.025-1.247.04l-.335.108Zm95.352-10.137c.862.209 1.571-.183 2.838-.301a14.851 14.851 0 0 0-.034-.207c-.491.238-1.868.322-2.804.508ZM5.829 18.858l-.54-.087c.74-.364.868-.097 1.695-.119.05 0 .034-.087.051-.087.203-.003.388.104.57.106.293.003.542-.066.975-.08.087-.004.182-.004.285-.002.48.012.481.177.65.175.144-.001 1.57-.43 2.472-.224 1.059.243-1.294.335-3.412.345-1.318.007-2.54-.01-2.746-.027Zm-5.252-.369.53-.002c-.532.251.54.216 1.323.219-.026.242-1.683.125-2.43.2.192-.14.384-.278.577-.417Zm21.627.571c-.647.054-.551-.255-.528-.346l.617-.027-.089.373Zm-4.909.234c.204-.207 1.627-.316 2.296-.351.03-.001-.152.117.322.094.1-.004.802-.225 1.119-.201.139.01.205.07.116.214l-.108.009c-1.238.095-2.486.172-3.743.235h-.002Zm-1.447-.114.81-.197.279.191.14.096-.14.012c-.26.023-.52.045-.781.066l-.308-.168ZM223.15 3.52l-.191-.313c-.251-.066-1.473.375-1.088.466l1.279-.154Zm5.139.274.756.167.88-.514c-1.261-.137-2.605-.29-2.395.23l-.868-.01c.246-.212.214-.283-.542-.427-.169.295-.951.134-1.849.191.653.024 1.305.048 1.957.074l-.002.157c-1.453-.036.35.317 1.299.121l.221.213.543-.202ZM123.56 10.68l.543.1c.602-.76-.707.045-1.75-.395.304.311-.666.46-1.062.522a1.32 1.32 0 0 0-.158.029l.172.11.39.253c.623-.204 1.245-.41 1.865-.62Zm5.156-.131c-.255-.084-.04-.186.379-.272a9.934 9.934 0 0 1 1.006-.137c.309-.029.623-.05.908-.065.309-.018.584-.03.804-.037.128-.005.238-.007.326-.008.106 0 .257.044.391.076.115.028.217.047.272.028.063-.08.104-.158.164-.239.021.037.073.055.167.051.562-.037 2.015-.527 2.654-.755l.272.216.841-.263-.06.278.593-.43c.831-.27.391.294 1.004.032.681-.29-.534-.36-.546-.544-.569.15-1.862.498-2.45.616-.336.067-.02-.332-1.397.32l-.999-.075a.834.834 0 0 0-.029.013c-.22.116-.315.204-.542.307-.182.089-.382.175-.598.259a6.017 6.017 0 0 1-.079-.092l-.22-.254c-.025-.007-.289.068-.587.157-.329.099-.7.218-.658.265a1.798 1.798 0 0 0-.243-.065 5.234 5.234 0 0 0-1.028-.076 12.1 12.1 0 0 0-1.127.066 48.24 48.24 0 0 0-.805.087l-.309.24c1.103-.283.366.025.716.11.094.022.274.048.465.078.247.03.572.066.715.113Zm86.402-6.793c.776-.12 1.046-.152 1.228-.147.27.007.345.095 1.595.097l-.438-.475c-.345.096-.765.139-1.157.169-.775.06-1.446.07-1.23.356h.002Zm20.451-.323c-1.104.077-.555.332-1.954.388h-.002l2.168.088-.212-.476Zm-64.901.47c-1.124.04-.901.141-1.93.01-.26.084-.431.148-.538.197-.25.117-.14.147.023.182.148.031.339.067.351.17.326-.119.657-.236.993-.352.865.164.083.374.087.398h.002c.009.08-.016.1.309.116.233-.242.469-.482.703-.722Zm-4.587.866c.339-.223.473-.472-.492-.468h-.002c-.026.409-.977.202-1.389.281l-.31.172 2.193.015Zm-15.833 2.528c-.071-.438.721-.6-.462-.836l-.651.123-.385.354c-2.89-.362-3.501 1.11 1.091-.112h.002l.405.47Zm4.858-.744.008-.706c.421.288.852.16 1.41.07a3.5 3.5 0 0 1 1.244-.01l.296-.255c.469.09 4.865-.442 3.868-.672-.436-.1-1.314.228-1.392.234-.266.017-.637-.135-1.081-.064-.257.04-.769.346-1.294.417-.443.06-1.036.05-1.682.058-1.067.014-2.279.079-3.19.586a108.63 108.63 0 0 0-.364-.16c-1.141.208-.726.373-1.832.267-.576 1.198 4.283-.676 3.363.364h.002l.644-.129Zm32.074-2.82c.069.2 1.406-.1 1.089.374l.353-.132.953-.357-.009-.133-.942.07-.354.027-.004-.21c-.642.248-3.349.126-3.268-.12a100.105 100.105 0 0 0-.437.314c-1.302-.287-2.425.02-3.862-.24l-.108.087-.221.178-.221-.207c-.523 0-1.048.002-1.574.007-1.703.327 1.629.605 2.022.567h.002c.051-.011.045-.189.372-.221.431-.044 2.299.028 3.661.035.508.002.947-.007 1.22-.039l.025.362 1.303-.362Zm-43.17 4.063a77.33 77.33 0 0 0-.278-.327c-1.238.329-2.047.36-1.657.704h.002a404.04 404.04 0 0 1 1.933-.377Zm-92.52 9.224c.033.179.383.26.884.206.176-.019.37-.054.575-.107l-.124-.208c-.133.073-.28.086-.46.074-.376-.025-.903-.157-1.768-.08l.02.367c.29-.085.581-.169.873-.252Zm93.613-9.349c.406.081 1.413-.524.701-.432-.544.07-.919.39-.701.432Zm94.796-3.928-.852-.092-.45.306h.002l1.3-.214Zm-65.461-.144a106.9 106.9 0 0 0-3.02.261l-.013.206c.415-.14.731-.178.976-.176.339.002.539.083.676.083h-.003c.758.001 1.476-.001 2.19.044-.268-.14-.536-.28-.806-.418Zm3.444.282c-.157-.41-.345-.506-1.376-.267-.162.038-.344.084-.55.14l.19.169c.134-.012.258-.025.371-.038.559-.062.858-.113.75.099.205-.035.41-.07.615-.103Zm-15.481 1.277c.197.128 1.586-.205 1.5-.271-.029-.023-1.339.005-1.53.165-.032.027-.032.058.012.093l.018.013ZM40.605 17.905l.713.013.279.005a265.15 265.15 0 0 0-1.292.272l.3-.29Zm-3.515 1.013c-.237-.039.475-.54-.92-.52 1.006-.105 2.014-.21 3.025-.313l-1.402.342.283.348-.986.143Zm-1.111-.212c.127.061.085.124-.06.184-.51.208-2.275.385-2.483.373-.06-.004-.364-.225-.472-.269l1.288-.123-.454-.193 1.502-.225-.623.297a18368.405 18368.405 0 0 1 1.302-.044Zm11.553-1.067a230.91 230.91 0 0 0-1.105.052l.247.352.181-.013.478-.033.2-.358Zm-7.435.76c.476-.637 2.033.52.306.195-.175-.033-.351-.134-.306-.195Zm-7.733.894c-1.076.533-.912-.437.167-.258.054.01-.086.219-.167.258Zm-8.307.714c-.088.002-.258-.294-1.07.044l-.42-.084c.26-.123 2.02-.303 2.585-.225.144.022.203.064.127.132l-.116.011c-.38.04-.708.105-1.106.122Zm2.817.93c.426-.043.85-.087 1.276-.132l-.446-.252.622-.132 1.121.403c-.928.109-1.852.214-2.776.316l.203-.202Zm11.418-.81c-.63-.032-1.35.086-2.237.193-.298.036-.614.07-.951.097h-.002c-.067.005-.199-.116-.415-.1-.185.014-3.79.5-3.528.248 1.38-.33 1.932-.076 2.221-.604l.235.295c1.316.051 1.69-.32 2.383-.53a2.89 2.89 0 0 1 .078-.022l.014.238 1.523-.121-.23-.136.539-.05c.46.192 1.02.195.37.492Zm-13.362.83c-.245.433-2.085.495-3.804.512-.791.01-1.55.014-2.101.065.574-.24 1.35-.245 2.095-.228.436.01.862.027 1.229.011 1.914-.09.579-.244.898-.358.155-.055 1.256.265 1.683-.001Zm16.386-1.213c-.986.04-1.522.228-2.39.087l.201-.151c.293.011 2.676-.076 2.19.064ZM16.46 21.407c.192.021.355.035.494.042 1.204.058.548-.336 1.422.019a162.276 162.276 0 0 1-1.916.096v-.157ZM147.616 9.563c.794-.11 1.695-.137 2.135-.433-.544.047-1.088.094-1.632.143l-.503.29Zm-22.156 5.519c.188.034.885-.21.96-.22.14-.016.112.067.116.087.916-.125.04-.266.711-.402.068-.013.665-.046 1.273-.092.325-.025.655-.042.909-.06a9.03 9.03 0 0 0 .193-.014c.24-.021.481-.038.712-.051.328-.02.637-.034.905-.047.334-.017.603-.033.761-.046l.142-.015c.248-.03.555-.088.889-.163.278-.063.57-.139.869-.221.289-.08.583-.155.87-.213.421-.085.597.03 1.02-.054 1.023-.205 2.417-.5 3.89-.797 2.038-.413 4.227-.83 5.78-1.06.304-.046.584-.085.833-.115.604-.074 1.206.027 1.521-.038.239-.11.478-.218.718-.326.866.508 1.038-.09 1.86-.274.522-.116.796.033.867.022l.033-.005c.447-.074.664-.193 1.022-.26.412-.077 1.02-.08 1.166-.116.089-.023-.237-.23 1.373-.455.739-.103 1.475-.2 2.214-.293.9-.115 1.803-.227 2.721-.343-.657-.673-1.069-.097-1.746.023-.182.033-.082-.102-.241-.075-.201.034-.483.1-.766.165-.346.08-.695.157-.902.17-.406.026-.307-.269-.802-.096-.025.01.072.111-.045.147-1.178.359-1.6.217-3.122.434-.179.026-.517.078-.954.148-1.612.256-4.562.763-5.804.955-.323.049-.531.076-.569.069-.325-.06-.052-.188.525-.34 1.481-.397 4.975-.928 5.521-.984.266-.028.008.138.252.127.01 0 .026-.005.048-.01.218-.063 1.02-.385 1.842-.523.968-.163 2.826-.298 3.964-.43.148-.016.283-.033.403-.05 1.812-.26 3.62-.501 5.426-.732 1.947-.248 3.893-.483 5.836-.71a85.565 85.565 0 0 1 3.998-.37c1.332-.092 2.666-.157 3.999-.202 1.331-.045 2.662-.07 3.993-.083 1.27-.013 2.54-.015 3.811-.014a.8.8 0 0 0 .173-.025c.183-.041.443-.119.906-.117 1.021.003 2.045.01 3.07.018 1.32.01 2.64.02 3.966.025l3.962.013 3.963.015a7511.13 7511.13 0 0 0 7.925.024 2339.782 2339.782 0 0 0 7.926.002c1.664-.003 3.329-.002 4.985 0 .768 0 1.534-.008 2.3-.017 1.822-.021 3.644-.044 5.486.058l.978-.303c-.831.071-2.351-.188-2.489-.193-.05-.002-.367.113-.875.1-.714-.017-1.026-.123-1.085-.124-.182-.002-.064.109-.237.106a93.378 93.378 0 0 0-1.774-.006c-.564.002-1.114.005-1.711.001-1.342-.009-2.022-.217-3.001.004l-.332-.264c-.295.152-1.181.233-2.245.278-1.298.055-2.865.051-3.963.041a252.75 252.75 0 0 1-.627-.006c-.555-.006-.457-.16-.644-.16-.119 0-.072.201-1.524.162-.646-.018-.871-.135-1.168-.158a1.311 1.311 0 0 0-.121-.004c-.199.003-.167.148-.453.148-1.218 0-2.271-.025-3.388-.05-.401-.008-.811-.017-1.238-.024-.456-.007-.461-.129-.563-.127-.375.005-1.028.21-1.982.21h-.18c-1.041 0-2.631-.003-3.963-.03-.74-.014-1.4-.037-1.841-.071-.189-.015-.345-.16-.484-.159-.21.004-.293.156-.33.157-.703.002-.28-.139-.75-.105-.157.012-.318.082-.557.14a2.706 2.706 0 0 1-.55.072c-.777.024-.624-.182-.948-.162-.034.003-.045.146-.364.15-.61.006-1.361.014-2.102.02-.728.006-1.446.01-2.015.007-.331-.002-.575-.099-1.036-.102-.175-.001-.504 0-.926.002-1.065.005-2.725.024-3.991.044-.896.013-1.595.025-1.742.01-.046-.005.422-.228-.331-.203l-.649.283c-.37-.13-.741-.258-1.113-.384.006.089-.061.166-.175.231-.508.288-1.94.338-1.946-.067l-.714-.018c-.398.317-.699.29-1.348.44a6.552 6.552 0 0 0-.391.104l-.471-.278-.094.22c-.54-.337-1.34.127-1.44.14-.389.049-.692-.015-.873.009-.198.025-.462.07-.755.122-.702.125-1.58.289-2.138.314-.037.002-.021-.164-.246-.156-.405.014-.414.255-.984.045l-.297.25a891.64 891.64 0 0 0-.357-.065 861.65 861.65 0 0 0-2.019.316.693.693 0 0 0 .183-.146c.046-.059.035-.102-.017-.129-.137-.07-.562-.022-.954.163-.216.102.006.242-.066.277-.099.046-3.14.364-3.355.286l-.409.216-.26-.285-.223.143a2.519 2.519 0 0 0-.562.03c-.94.133-2.309.606-2.614.623-.201.01-.086-.461-1.03-.279l-.045.381-.645.148c-.409.048-1.034-.076-1.075-.218l-.343.318a.33.33 0 0 0-.063-.03c-.489-.169-2.166.187-2.838.467l-.684-.156-.815.448c-.663.137.015-.147-.13-.139-.199.012-.903.245-1.355.3-.24.03-.409.01-.395-.122l-.628.1-.271.365c-.418-.297-1.018-.07-2.314.02l-.277.3-1.242-.143-.17.45-.494.147-.009.003c-.401-.242-.966.199-1.306.132-.496-.098-.179-.383.675-.58-.105-.213-2.65.36-3.24.492l.142.107c.599-.149 1.197-.296 1.795-.441.609.463-1.058.615-1.798.831-.067.02-.417.305-1.177.432-.149.024-.531.015-.901.003-.331-.016-.609-.06-.714-.054l-.098.004c-.508.02-.712.057-.819.1-.182.069-.091.146-.866.024a26.72 26.72 0 0 1-.297-.05c.236.178-.069.164-.606.16-.269-.001-.6 0-.948.038-.06.006-.121.013-.182.022-.075.01-.429.088-.786.188-.454.13-.963.277-1.021.288-.622.116.027-.231-.871-.052l-.301.247-.633.074c-1.351-.471-1.598.015-2.048.123-.182.043.038-.143-.436-.058-.179.031-.365.187-.848.246a5.634 5.634 0 0 1-.582.041c-1.108.02-1.688-.284-2.844.341l-.666-.203-.407.35c-1.134-.208-.708.068-1.108.098a36.05 36.05 0 0 1-1.753.088c-.818.018-1.565-.009-1.683-.142-.872.64-2.011.067-2.369.113l-.629.252-.769-.161c.159.556-1.181.083-1.307.082a.95.95 0 0 0-.067.005c-.385.04-2.134.284-2.823.319-.747.038-2.057-.046-2.172-.04-.107.005-.962.152-1.813.231a12.75 12.75 0 0 1-.577.042c-.87.045-6.042.064-5.706.3.341.054.825.093 1.242.107.638.02 2.8-.022 5.059-.086a549.139 549.139 0 0 0 6.828-.24c2.249-.1 4.541-.244 6.815-.405a786.51 786.51 0 0 0 3.899-.287c.229-.018.277.125.473.11.298-.022 1.038-.239 1.331-.264l1.098-.093c.776-.066 1.516-.132 1.912-.173 1.308-.133 2.211-.15 3.2-.255.198-.021.901-.181 1.665-.313.307-.053.644-.093.943-.111.132-.008.261-.012.383-.012.185.025.369.052.551.079l.054.008-.053.008c-.22.031-.551.078-.918.136-.297.047-.629.104-.925.162a18.71 18.71 0 0 1-.82.146c-.998.145-1.534.088-1.903.133-.308.039-1.875.352-2.596.43-.224.024-.286-.124-.477-.103-.309.033-.646.069-.992.108-.818.094-1.68.21-2.306.373.364-.08-1.946.031-2.067.04-.207.017-.42.179-.843.214-.77.062-.739-.21-1.577.082a5.623 5.623 0 0 0-.15.055l-.775-.205c.014.404-3.205.087-4.079.627-.02.062 4.129-.069 4.471-.093.18-.01.367-.021.56-.034 2.015-.13 4.688-.442 6.505-.56.082-.005.188-.008.31-.01.775-.013 2.211.015 2.333-.003.228-.032.006-.148.104-.164 2.006-.328 1.032.061 1.309.112Zm-89.3 5.512 1.852-.126-.11.275-.855-.022-.635.219-.251-.346Zm-1.478.511c-.529.095-.572-.087-.696-.085-.37.008-.68.113-1.035.144.368-.477 1.26-.36 1.73-.059Zm11.058-.829c-.122-.011-.97-.423-1.852.092-.698-.083-1.397-.164-2.096-.243 1.184.11 2.782-.244 3.357-.279.218-.014.27.128.444.117.507-.032 1.002-.15 1.384-.196.375-.046.642-.023.708.21a3.5 3.5 0 0 0-.692.018c-.643.077-1.136.292-1.253.281Zm-6.042.342-.506-.257 1.73-.158-.44.347-.784.068Zm44.095-4.406a121.631 121.631 0 0 0-1.077.088c.021.058.296.044.481.057a.726.726 0 0 1 .108.014c.173.042.11.142.418.159l.07-.318Zm146.729-9.068.391.007c1.407.02 5.659.064 5.249-.179-.235-.138-2.12-.052-2.676-.063-.574-.012-1.896-.203-2.569-.034-.204.052-.349.136-.395.269Zm9.753.211c.057-.152-1.06-.25-2.082-.298-.752-.036-1.453-.044-1.596-.026.071.039.179.125.274.146.201.043.727.067 1.319.086.776.025 1.665.044 2.085.092Zm-136.506 8.63-.852-.36.246.514.606-.154Zm26.8-2.45.628-.032c.298-.016.593-.033.884-.055.291-.023.578-.05.862-.085.287-.036.551-.077.837-.132 1.924-.376 3.858-.734 5.789-1.075 1.528-.27 3.058-.53 4.589-.78-.39.138-.78.277-1.169.417-1.113.18-2.246.366-3.385.559-1.939.33-3.898.684-5.785 1.074-.289.06-.561.106-.85.147-.288.041-.579.075-.87.104-.295.03-.592.055-.888.08l-.059.005c-.193-.076-.387-.152-.583-.227Zm-83.467 7.434c1.185-.08 2.17-.271 3.473-.135-1.219.264-1.847-.005-3.021.368h-.002l-.45-.233Zm26.16-2.795c-.339.177-.676.355-1.013.534.429-.07.857-.138 1.286-.204l-.274-.33Zm97.209-9.79c.5-.163 1.347-.224 2.234-.255 1.254-.046 2.588-.027 3.169-.242.065-.024-.543-.133.417-.44-.732.086-1.247.17-1.291.379a101.63 101.63 0 0 0-.665-.173c-.358.075-.715.151-1.072.23.024-.208-.004-.197-.548-.014l-.03-.004a96.503 96.503 0 0 0-.741-.091l-.299.288a76.973 76.973 0 0 0-.69-.304c-.842.215-.297.4-.484.626Zm-4.315.464c.099.01 1.478-.186 2.578-.398 1.177-.225 2.049-.454.673-.519-.242.032-.483.066-.724.1l-1.296.186c.641.606-1.269.23-1.422.235-.73.025-1.628.302-2.152.361-.406.045-.675-.02-.956-.002a1.32 1.32 0 0 0-.094.01c-1.077.15-2.778.38-2.975.69.838-.106 1.689-.215 2.559-.335.184-.026.366-.04.551-.05.741-.043 1.55-.035 2.898-.498.433-.015.306.215.36.22ZM71.173 18.857c-.001-.109-.311-.115-.695-.073-.631.069-1.461.269-1.458.339.007.065.712-.06.816-.053h.002c.044.003-.15.146.186.119a217.687 217.687 0 0 1 1.149-.332Zm150.773-11.18c.089.048.768.082 1.678.104 2.106.051 5.447.053 5.587.002.054-.02-.02-.09.002-.13-1.582.2-3.824-.092-5.324-.123a.803.803 0 0 0-.262.023c-.089.031-.04.082-.055.084h-.003c-.237-.003-1.306-.286-1.623.04Zm-43.906-.002c-.289-.036-.579-.07-.87-.104a45.723 45.723 0 0 0-.207.27c.359-.056.718-.112 1.077-.166Zm9.981.224-.209-.186c-.724-.013-1.449-.025-2.174-.036l.22-.104a5.751 5.751 0 0 0-1.23.016c-.338.04-.604.09-.905.073h.002c-.063-.003-.139-.132-.373-.135-.536-.01-2.075-.046-2.26.087-.389.276 2.701.122 3.278.14a1.6 1.6 0 0 1 .258.032c.186.035.366.088.474.09.173.003.41-.148.833-.142.123.002 1.494.188 2.086.165Zm12.786-.166a.594.594 0 0 0-.312-.064c-.21.002-.439.051-.549.037-.041-.006.278-.122-.108-.157l-.328.238.985-.04.312-.014ZM67.564 19.626c.067.017 1.224-.203 1.277-.23.65-.376-1.748.084-1.277.23Zm-29.475 2.928c.225.124-.63.237-1.79.334-1.79.151-4.306.26-4.682.305.01-.234 1.552-.144.726-.386.776.104 2.869-.19 3.368-.186.303.002.398.194.444.196a.919.919 0 0 0 .136-.016c.43-.07 1.623-.344 1.798-.247Zm-11.771.94c.611-.005 1.223-.011 1.835-.019-.715.087-1.431.172-2.147.254l.312-.236Zm-.757.164c.005.032-.034.06-.106.082-.428.142-2.017.123-2.48.187.57-.396 1.553-.134 2.475-.253l.11-.016Zm34.398-2.092a1.7 1.7 0 0 0 .154.003c.344-.01.589-.125.687-.227.07-.072.067-.139-.022-.16-.098-.026-.3.003-.637.127a.221.221 0 0 0-.05.047c-.064.073-.163.207-.132.21Zm110.9-12.253c.122-.01 1.325.009 1.935-.022.19-.01.323-.028.349-.056.163-.18-.052-.22-.37-.223-.345-.003-.81.041-1.045-.007-.73-.148.299-.427-1.426-.126l.192-.232c-1.022.084-.633.534-.808.615-.053.025-.691.058-.802.104l-.035.014c-.483.201-.345.242.026.212.622-.053 1.891-.274 1.984-.28Zm-87.556 8.732h.038c1.855.05 1.044-.19 2.972-.296.054-.16-2.571.106-2.973.278a.21.21 0 0 0-.037.018Zm69.208-6.612c1.692-.302 3.148-.359 4.675-.714.219-.051.44-.108.663-.173-.035-.081-.3-.095-.696-.065-1.542.115-5.056.924-4.642.952Zm92.066-2.11a109.992 109.992 0 0 0-6.413-.515c-2.382-.128-4.821-.2-7.273-.242a511.756 511.756 0 0 0-7.273-.061l-3.632-.01c-.886-.004-.97-.17-1.291-.153-.211.011-.174.145-.454.145-.633 0-1.265 0-1.895.003-1.328.005-2.648.012-3.963.02l-3.963.03-3.962.032c-1.325.01-2.646.02-3.963.028-1.324.008-2.644.014-3.963.018-1.322.003-2.643.004-3.962.001a317.429 317.429 0 0 1-3.78-.033c-.05 0-.116-.003-.195-.007-.864-.046-3.315-.259-3.968.103a.402.402 0 0 0-.043.026c-.114.078-.08.123.042.146.392.074 1.69-.069 1.961-.065.266.004.277.158.455.16.188 0 .033-.105.252-.106.423 0 .865.009 1.3.019.517.011 1.024.024 1.481.021.833-.004 1.666-.009 2.495-.015a1137.327 1137.327 0 0 1 7.925-.037 1991.018 1991.018 0 0 1 7.925.002l3.963.007 2.124.004c.991.001.788.125.837.125h.002c.331 0 .664 0 1-.002 2.328-.01 4.781-.051 7.268-.075a225.33 225.33 0 0 1 7.272.025c.489.012.976.025 1.46.042 1.937.072 3.874.146 5.812.22 2.024.078 4.048.155 6.073.23l.346-.086Zm-77.919.045c.526.385.594-.042 2.177-.102.066-.003.134-.004.206-.005l.4-.287a989.325 989.325 0 0 0-2.786.395h.003Zm11.645-.768c.155.301 1.163.324 2.366.294 1.269-.033 2.757-.124 3.672-.062.327-.317-2.265-.171-2.875-.194-.113-.005-.41-.05-.802-.095-.664-.074-1.602-.142-2.379-.007l.018.064ZM44.855 22.882l.856-.122a290.29 290.29 0 0 0-2.171-.035c1.15-.051 2.3-.096 3.448-.133l-.611.436c-.507-.05-1.014-.099-1.522-.146Zm3.71-.334c-2.002.182.07-.308.58-.181.306.074-.375.162-.58.18Zm5.224-.033a6.749 6.749 0 0 1-1.19.196c-.752.06-1.39-.006-.97-.322.348.057.652.071.96.068.594-.006 1.204-.079 2.171-.023l-.633.28h-.003l-.335-.199Zm-6.12.369c-1.331-.176 2.476-.335 1.292-.084-.056.01-1.24.09-1.293.084ZM236.116 9.656c.161-.147-.855-.16-1.193-.176-1.21-.057-2.704-.043-4.045-.06a54.766 54.766 0 0 1-.823-.017l.342.153.478.008c1.747.029 3.494.06 5.241.092Zm-10.826-.315a1035.24 1035.24 0 0 0-3.139-.03c-.097-.001-.555.124-.216.157a953.186 953.186 0 0 1 3.355-.127ZM160.22 11.1c.805-.023-1.425.708-1.383.24l1.383-.24Zm-7.361 1.212c.491-.116.982-.232 1.473-.346l.025.156-1.498.19Zm87.374-2.482c-.426-.153-1.332-.179-2.083-.192-.184-.003-.359-.005-.515-.009.133.04.31.067.514.087.632.06 1.517.045 2.084.114Zm-68.111.015c-.024-.039.298-.09.705-.127.831-.078 2.014-.085 1.292.105a98.742 98.742 0 0 0-1.997.022Zm6.403-.159c-.677.045-1.202.022-1.069-.176.359-.004.719-.007 1.079-.008l-.01.184ZM57.34 22.814l.644-.012a24.482 24.482 0 0 0 1.49-.067 21.712 21.712 0 0 0 1.506-.17l-.014.02a23.96 23.96 0 0 1-.102.154 21.878 21.878 0 0 1-2.88.22l-.647.012.003-.157Zm183.538-12.498 2.382-.065-2.38-.145-.004.21h.002ZM41.734 24.36l.154-.003c1.934-.022 1.16.192.027.31-.758.078-1.68.117-2.057.008l-.003.001c-.084-.024.073-.194-.067-.243l1.087.11.952-.347.048.01.281.064-.27.057-.153.033ZM27.55 25.803c-3.214.226.042-.413 1.655-.25-.004.071-1.357.229-1.654.25Zm8.373-.847.565-.094.93-.154.204.113-1.115.236-.027.006-.557-.107Zm16.44-.596c.1.001.203-.005.302-.018.549-.07.968-.325-.013-.325-.25 0-.593.018-1.048.062l.012.159c.101-.014.398-.077.415-.074.047.011 0 .19.332.195Zm-30.77 3.213c-.05.012-.08.17-.24.241-.147.066-.404.06-.88-.203l-.879.129-.236-.363c1.138.069 1.252-.187 1.334-.194.376-.035.101.102.345.096l.296-.012c.686-.033 1.678-.101 1.13.24-.23.14-.778.043-.87.066Zm2.258.21c-.143-.037.3-.226.191-.266-.1-.032-1.49-.127-1.13-.421l.682-.001.245.213.649-.248c.382.162 1.183.348.261.562.333-.037.663-.076.99-.116l.03-.003.5-.307-.242.427-.277.023c-.622.051-1.257.097-1.899.138Zm-10.571.148.124-.21c-.223.022-.47.04-.716.054-1.118.06-2.24.01-1.344-.337l1.348-.013c1.221-.014 2.447-.034 3.677-.066l.336.157c-1.256-.199-.868.666-1.96.416-.183-.044.35-.343-.804-.156l.121.213-.782-.058Zm-10.504-.266c2.068.127-.215.354-.592.139h.002c-1.04-.592 1.205-.29 1.344-.29.109-.002.308-.15.662-.135.237.01.544.094.94.344a510.042 510.042 0 0 0-2.356-.058Zm6.8.215c-.176.01-.077-.094-.153-.094h-.002c-.266.001-.618.004-1.005.004-1.247 0-2.844-.035-3.058-.3a68.585 68.585 0 0 1 3.063.027c.87.03 1.6.086 1.695.187l-.54.176Zm7.98-.204c.453.137-.038.206-.557.21-.288.002-.585-.017-.733-.053-.057-.016.269-.21.73-.228.172-.007.363.01.56.07ZM70.69 23.67c1.44-.383-.505-.183.126-.503l-.831.199c.235.1.47.202.705.304Zm68.684-5.88c.346-.037.161-.133.191-.14.225-.037.455.026.54 0 .17-.054.309-.1.421-.141.915-.332.056-.268.037-.287-.052-.11.285-.307-.153-.364a1.726 1.726 0 0 0-.116-.011c-.345.107-.69.214-1.035.323l-.564-.11c-.674.276.251.147.391.324.054.07-.588.282.288.407ZM73.375 23.65c.2-.256.738-.623.133-.752h-.002c-.112-.023-.546.024-.687-.01-.895.445-.482.683.556.762Zm59.137-4.296a31.39 31.39 0 0 1-.996-.013c-.312-.009-.604-.02-.877-.031l.006-.398a67.151 67.151 0 0 0 .95.056l.348-.202a25.342 25.342 0 0 1-1.229-.386 23.384 23.384 0 0 0-1.218.243 146.825 146.825 0 0 0 .549.166 4.045 4.045 0 0 1-.258.03c-.432.04-.475-.065-.722-.145a2.333 2.333 0 0 0-.651-.079c-.311.163-.622.325-.936.487-.49-.065-.982-.13-1.473-.198-.795.15-.855.25-.3.329-.381.205-.844.003-1.314.12-.039.01.051.151.017.157-1.349.202-1.932.164-2.248.097-.261-.056-.34-.134-.519-.124-.279.016-1.365.388-1.375.48-.011.124 2.353.394-1.275.74 1.907.17 4.011-.388 2.582-.741.128-.002.349-.02.617-.05.986-.105 2.621-.356 2.753-.36.246-.005.181.19.488.16.181-.018.613-.494 2.086-.296l.52-.276.531.108c-.323.248-.648.496-.975.743.572-.164 1.114-.213 1.607-.249.263-.014.417-.006.657-.03a1.87 1.87 0 0 0 .711-.196h.054c.642.007 1.02.03.704.223l.21-.011c.161-.009.327-.018.499-.03l.477-.324Zm-54.905 3.351c.719.112.911-.358.8-.37-.626-.058-1.175.313-.8.37Zm60.456-4.91c-.789.03-1.575.063-2.368.1l.08.413c.766-.175 1.524-.345 2.288-.513Zm-67.534 6.224a227.57 227.57 0 0 0-.266-.273c-.774.525-1.707.136-2.104.324-.086.041.13.19.31.198.112.003 1.918-.19 2.06-.249ZM34.197 27.45l.95-.303-.02.358-.473.111-.457-.166Zm3.652-.537c.574-.045 1.148-.09 1.72-.133-2.173.313-.376.197-1.688.475l-.032-.342Zm5.799-.286-.192.229a400.485 400.485 0 0 0-1.706.148l.391.218.752.419.623-.052.132-.962ZM154.68 15.854c.343-.045 1.505-.426 1.443-.496-.509-.026-1.018-.052-1.527-.076l.053.418-.24-.178-.821.278-.479-.301-.366.478c1.393.046 1.311-.191 1.594-.23.144-.02.247.054.304.09l.039.017Zm-16.983 2.917c1.259-.208 2.057-.579 2.931-.68a3.72 3.72 0 0 1 .741-.015c-.15-.09-.416-.118-.763-.104-1.385.055-4.005.786-5.707.938h-.001c-.411.046-.898.067-1.187.03l-.059.035c-.204.123-.406.242-.604.358.218-.038.431-.069.637-.094.427-.051.945-.1 1.255-.12.262-.01.486-.01.672-.032.362-.046.303-.147.331-.15l.004-.001c.844-.117 1.119-.06 1.75-.165Zm-68.267 5.966c.46.087 1.206-.061 1.173-.302-.43.003-.86.008-1.292.014.097.046.04.273.12.288ZM44.364 27.25c.347.05 1.144-.082.78-.265-.064-.032-.853.18-.414-.236-.78.07-.563.472-.366.5Zm64.528-6.055c-.169.015-.339.03-.509.043l-.372.032-.188.306.568-.202.501-.179Zm-43.06 4.382c-.469-.4-1.02.183-1.804-.067l-.79.146h-.001l.055.39c.852-.16 1.694-.315 2.54-.469Zm61.518-5.763-.572-.116c-.317.11-.636.218-.955.326l.549.09.978-.3Zm-66.615 6.692c.307-.016.56-.065.74-.122.39-.126.436-.284-.04-.287a5.498 5.498 0 0 0-.624.04 2.497 2.497 0 0 0-.242.039c-.506.104-.886.35.033.335.041 0 .086-.002.133-.005Zm111.48-13.046c-.305-.01-.615-.017-.916-.023-.093.097-.186.195-.277.293.388-.092.792-.183 1.193-.27ZM39.966 27.59l.088-.273.858-.026-.19.28-.756.019Zm130.226-13.984c-.243.01-.49.023-.74.036l-.075.03-.421.16.443.023.279.017.514-.266ZM51.525 26.772c.355.088 1.74-.301.476-.33-.808-.015-.529.317-.475.33Zm-1.886.208c1.35.126.289-.844-1.274-.078 1.607-.194 1.195.072 1.274.078Zm-11.852 1.502c-.034.003-.076-.14-.352-.12-.193.015-.398.03-.609.043-.872.059-1.84.112-2.416.16-.648.053-1.8.195-3.024.328-2.006.22-4.238.404-4.641.17-.137-.08.141-.369.087-.378-.158-.026-1.035.171-.886-.037.869-.065 1.747-.134 2.623-.207l-.611.468c2.177-.258 1.45-.19 2.05-.544l1.13.25.218-.052c.713-.172 1.423-.345 2.132-.52l-.514.313c1.21.05.868-.026 1.5-.299l.029.261c1.13-.322 1.377-.082 1.628-.103.187-.015.379-.17.647-.32.468-.263 1.17-.513 2.472.024.775-.57.849.437 1.283-.119 1.436.43-1.214.468-2.472.57l-.002.001c-.095.008.064.087-.272.111Zm7.065-1.148c-.793.518 2.49.305 1.355-.266l-.491-.026-.866.292h.002Zm31.69-3.153c2.947-.592 1.223-.624.248-.23-.194.078-.294.162-.249.23Zm63.505-5.487.103-.185c-1.004.23-2.99.389-2.892.746.923-.19 1.857-.378 2.789-.561Zm-8.851 1.595c.07.003.209.006.372.003.358-.005.855-.044.757-.133a20.696 20.696 0 0 1-1.308-.217 15.384 15.384 0 0 0-.508.21c.045.002.096.008.15.017.217.036.487.118.537.12Z" />
</svg>